<mxfile host="Electron" agent="Mozilla/5.0 (Macintosh; Intel Mac OS X 10_15_7) AppleWebKit/537.36 (KHTML, like Gecko) draw.io/25.0.2 Chrome/128.0.6613.186 Electron/32.2.5 Safari/537.36" version="25.0.2">
  <diagram name="Page-1" id="z_WCevcYzIlRIx7QYrnt">
    <mxGraphModel dx="1028" dy="756" grid="1" gridSize="10" guides="1" tooltips="1" connect="1" arrows="1" fold="1" page="1" pageScale="1" pageWidth="850" pageHeight="2000" math="0" shadow="0">
      <root>
        <mxCell id="0" />
        <mxCell id="1" parent="0" />
        <mxCell id="0bVcyO2ndW_ruAtxr8vg-38" style="edgeStyle=orthogonalEdgeStyle;rounded=0;orthogonalLoop=1;jettySize=auto;html=1;exitX=0.5;exitY=1;exitDx=0;exitDy=0;shape=flexArrow;" edge="1" parent="1" source="0bVcyO2ndW_ruAtxr8vg-6">
          <mxGeometry relative="1" as="geometry">
            <mxPoint x="425" y="280" as="targetPoint" />
          </mxGeometry>
        </mxCell>
        <mxCell id="0bVcyO2ndW_ruAtxr8vg-25" value="" style="edgeStyle=orthogonalEdgeStyle;rounded=0;orthogonalLoop=1;jettySize=auto;html=1;endArrow=none;endFill=0;curved=1;" edge="1" parent="1" source="0bVcyO2ndW_ruAtxr8vg-6" target="0bVcyO2ndW_ruAtxr8vg-24">
          <mxGeometry relative="1" as="geometry" />
        </mxCell>
        <mxCell id="0bVcyO2ndW_ruAtxr8vg-6" value="" style="rounded=1;whiteSpace=wrap;html=1;arcSize=6;" vertex="1" parent="1">
          <mxGeometry x="325" y="80" width="200" height="130" as="geometry" />
        </mxCell>
        <mxCell id="0bVcyO2ndW_ruAtxr8vg-1" value="&lt;b&gt;Feru&lt;i&gt;liym&lt;/i&gt;&lt;/b&gt;" style="text;html=1;align=center;verticalAlign=middle;whiteSpace=wrap;rounded=0;fontSize=30;" vertex="1" parent="1">
          <mxGeometry x="350" y="102" width="150" height="60" as="geometry" />
        </mxCell>
        <mxCell id="0bVcyO2ndW_ruAtxr8vg-3" value="A Logic Tool for JavaScript" style="text;html=1;align=center;verticalAlign=middle;whiteSpace=wrap;rounded=0;fontSize=12;fontStyle=0" vertex="1" parent="1">
          <mxGeometry x="345" y="154" width="160" height="30" as="geometry" />
        </mxCell>
        <mxCell id="0bVcyO2ndW_ruAtxr8vg-18" value="Idea of" style="shape=process;whiteSpace=wrap;html=1;backgroundOutline=1;" vertex="1" parent="1">
          <mxGeometry x="365" y="60" width="120" height="20" as="geometry" />
        </mxCell>
        <mxCell id="0bVcyO2ndW_ruAtxr8vg-24" value="Make code be cleaner" style="whiteSpace=wrap;html=1;rounded=1;arcSize=0;fontColor=#009900;" vertex="1" parent="1">
          <mxGeometry x="600" y="70" width="140" height="50" as="geometry" />
        </mxCell>
        <mxCell id="0bVcyO2ndW_ruAtxr8vg-26" value="Manage of logical datas esier" style="whiteSpace=wrap;html=1;rounded=1;arcSize=0;fontColor=#009900;" vertex="1" parent="1">
          <mxGeometry x="140" y="100" width="120" height="52" as="geometry" />
        </mxCell>
        <mxCell id="0bVcyO2ndW_ruAtxr8vg-27" value="" style="edgeStyle=orthogonalEdgeStyle;rounded=0;orthogonalLoop=1;jettySize=auto;html=1;endArrow=none;endFill=0;curved=1;exitX=1;exitY=0.5;exitDx=0;exitDy=0;entryX=0;entryY=0.5;entryDx=0;entryDy=0;" edge="1" parent="1" source="0bVcyO2ndW_ruAtxr8vg-26" target="0bVcyO2ndW_ruAtxr8vg-6">
          <mxGeometry relative="1" as="geometry">
            <mxPoint x="535" y="155" as="sourcePoint" />
            <mxPoint x="610" y="110" as="targetPoint" />
          </mxGeometry>
        </mxCell>
        <mxCell id="0bVcyO2ndW_ruAtxr8vg-28" value="JS library" style="whiteSpace=wrap;html=1;rounded=1;arcSize=0;fontColor=#009900;" vertex="1" parent="1">
          <mxGeometry x="140" y="200" width="80" height="30" as="geometry" />
        </mxCell>
        <mxCell id="0bVcyO2ndW_ruAtxr8vg-30" value="" style="edgeStyle=orthogonalEdgeStyle;rounded=0;orthogonalLoop=1;jettySize=auto;html=1;endArrow=none;endFill=0;curved=1;exitX=1;exitY=0.5;exitDx=0;exitDy=0;entryX=0;entryY=0.75;entryDx=0;entryDy=0;" edge="1" parent="1" source="0bVcyO2ndW_ruAtxr8vg-28" target="0bVcyO2ndW_ruAtxr8vg-6">
          <mxGeometry relative="1" as="geometry">
            <mxPoint x="270" y="136" as="sourcePoint" />
            <mxPoint x="335" y="155" as="targetPoint" />
          </mxGeometry>
        </mxCell>
        <mxCell id="0bVcyO2ndW_ruAtxr8vg-31" value="" style="edgeStyle=orthogonalEdgeStyle;rounded=0;orthogonalLoop=1;jettySize=auto;html=1;endArrow=none;endFill=0;curved=1;entryX=0;entryY=0.5;entryDx=0;entryDy=0;exitX=1;exitY=0.75;exitDx=0;exitDy=0;" edge="1" parent="1" target="0bVcyO2ndW_ruAtxr8vg-32" source="0bVcyO2ndW_ruAtxr8vg-6">
          <mxGeometry relative="1" as="geometry">
            <mxPoint x="550" y="249" as="sourcePoint" />
          </mxGeometry>
        </mxCell>
        <mxCell id="0bVcyO2ndW_ruAtxr8vg-40" style="rounded=0;orthogonalLoop=1;jettySize=auto;html=1;exitX=0.5;exitY=0;exitDx=0;exitDy=0;entryX=0.5;entryY=1;entryDx=0;entryDy=0;endArrow=classic;endFill=1;elbow=vertical;edgeStyle=orthogonalEdgeStyle;curved=1;" edge="1" parent="1" source="0bVcyO2ndW_ruAtxr8vg-32" target="0bVcyO2ndW_ruAtxr8vg-24">
          <mxGeometry relative="1" as="geometry" />
        </mxCell>
        <mxCell id="0bVcyO2ndW_ruAtxr8vg-32" value="Doesn&#39;t make the code shorter" style="whiteSpace=wrap;html=1;rounded=1;arcSize=0;fontColor=#CC0000;" vertex="1" parent="1">
          <mxGeometry x="620" y="192" width="120" height="46" as="geometry" />
        </mxCell>
        <mxCell id="0bVcyO2ndW_ruAtxr8vg-36" value="idea by Github: TaarnN&amp;nbsp;" style="text;html=1;align=left;verticalAlign=middle;whiteSpace=wrap;rounded=0;" vertex="1" parent="1">
          <mxGeometry x="20" y="1950" width="180" height="30" as="geometry" />
        </mxCell>
        <UserObject label="&lt;span style=&quot;font-family: Helvetica; font-size: 12px; font-style: normal; font-variant-ligatures: normal; font-variant-caps: normal; font-weight: 400; letter-spacing: normal; orphans: 2; text-indent: 0px; text-transform: none; widows: 2; word-spacing: 0px; -webkit-text-stroke-width: 0px; white-space: normal; background-color: rgb(251, 251, 251); text-decoration-thickness: initial; text-decoration-style: initial; text-decoration-color: initial; float: none; display: inline !important;&quot;&gt;https://github.com/TaarnN&lt;/span&gt;" link="&lt;span style=&quot;color: rgb(0, 0, 0); font-family: Helvetica; font-size: 12px; font-style: normal; font-variant-ligatures: normal; font-variant-caps: normal; font-weight: 400; letter-spacing: normal; orphans: 2; text-align: center; text-indent: 0px; text-transform: none; widows: 2; word-spacing: 0px; -webkit-text-stroke-width: 0px; white-space: normal; background-color: rgb(251, 251, 251); text-decoration-thickness: initial; text-decoration-style: initial; text-decoration-color: initial; display: inline !important; float: none;&quot;&gt;https://github.com/TaarnN&lt;/span&gt;" id="0bVcyO2ndW_ruAtxr8vg-37">
          <mxCell style="text;whiteSpace=wrap;html=1;align=center;verticalAlign=middle;fontColor=#007FFF;" vertex="1" parent="1">
            <mxGeometry x="150" y="1950" width="140" height="30" as="geometry" />
          </mxCell>
        </UserObject>
        <mxCell id="0bVcyO2ndW_ruAtxr8vg-41" value="just" style="text;html=1;align=center;verticalAlign=middle;whiteSpace=wrap;rounded=0;fillColor=default;" vertex="1" parent="1">
          <mxGeometry x="645" y="149" width="60" height="22" as="geometry" />
        </mxCell>
        <mxCell id="0bVcyO2ndW_ruAtxr8vg-43" value="Ex." style="text;html=1;align=center;verticalAlign=middle;whiteSpace=wrap;rounded=0;fillColor=none;" vertex="1" parent="1">
          <mxGeometry x="415" y="290" width="20" height="12" as="geometry" />
        </mxCell>
        <mxCell id="0bVcyO2ndW_ruAtxr8vg-60" style="edgeStyle=orthogonalEdgeStyle;rounded=0;orthogonalLoop=1;jettySize=auto;html=1;exitX=1;exitY=0.5;exitDx=0;exitDy=0;entryX=0;entryY=0.5;entryDx=0;entryDy=0;" edge="1" parent="1" source="0bVcyO2ndW_ruAtxr8vg-58" target="0bVcyO2ndW_ruAtxr8vg-88">
          <mxGeometry relative="1" as="geometry">
            <mxPoint x="441.15" y="465" as="targetPoint" />
          </mxGeometry>
        </mxCell>
        <mxCell id="0bVcyO2ndW_ruAtxr8vg-58" value="" style="shape=image;verticalLabelPosition=bottom;labelBackgroundColor=default;verticalAlign=top;aspect=fixed;imageAspect=0;image=data:image/png,iVBORw0KGgoAAAANSUhEUgAAAVAAAAEtCAYAAABeVDjGAAABYWlDQ1BJQ0MgUHJvZmlsZQAAKJFtkM9LAlEQx79bhmAeJOoSBUJ0kCx0k6ijmVTgQdTIuu0+TQvdHrsb0b1Tl24RBBEEnYLo5KHL0j/QoSjoHNE9WPol2zytVqs3DN8PX2aGeQN0BBTOKx4AVc3UM7PTwfzSctD7BD8C8GEQUYUZPJ5Op6gE39r+7FtIQq9HxayR3cO3o8ehg8jZS+71+Nz6W9/2fIWiwUg/KCcY101AihGnN00ueJu4V6eliPcFl5p8KlhtstWoyWUSxDfEAVZWCsQPxGG1xS+1cLWywb52ENv7i9pClrSfcgAzSCJFEUSWSKaIYgpzyNOd/u+LNfoSWAfHFnSsooQyTJoQJ4ejgiLxPDQwjCFMLCNCGRP3/n1H12NJQFYJrlxvbQe46KMvTLpeyAv0kH85zBVd+bmuZHuMlXG5yd01oGvPcZ4XAW8IqN85znvNceonQOc9YNmfcnRk8aNkQ5IAAABWZVhJZk1NACoAAAAIAAGHaQAEAAAAAQAAABoAAAAAAAOShgAHAAAAEgAAAESgAgAEAAAAAQAAAVCgAwAEAAAAAQAAAS0AAAAAQVNDSUkAAABTY3JlZW5zaG90X8V0iwAAAdZpVFh0WE1MOmNvbS5hZG9iZS54bXAAAAAAADx4OnhtcG1ldGEgeG1sbnM6eD0iYWRvYmU6bnM6bWV0YS8iIHg6eG1wdGs9IlhNUCBDb3JlIDYuMC4wIj4KICAgPHJkZjpSREYgeG1sbnM6cmRmPSJodHRwOi8vd3d3LnczLm9yZy8xOTk5LzAyLzIyLXJkZi1zeW50YXgtbnMjIj4KICAgICAgPHJkZjpEZXNjcmlwdGlvbiByZGY6YWJvdXQ9IiIKICAgICAgICAgICAgeG1sbnM6ZXhpZj0iaHR0cDovL25zLmFkb2JlLmNvbS9leGlmLzEuMC8iPgogICAgICAgICA8ZXhpZjpQaXhlbFlEaW1lbnNpb24+MzAxPC9leGlmOlBpeGVsWURpbWVuc2lvbj4KICAgICAgICAgPGV4aWY6UGl4ZWxYRGltZW5zaW9uPjMzNjwvZXhpZjpQaXhlbFhEaW1lbnNpb24+CiAgICAgICAgIDxleGlmOlVzZXJDb21tZW50PlNjcmVlbnNob3Q8L2V4aWY6VXNlckNvbW1lbnQ+CiAgICAgIDwvcmRmOkRlc2NyaXB0aW9uPgogICA8L3JkZjpSREY+CjwveDp4bXBtZXRhPgoZJabrAABAAElEQVR4Ae2dB3gURRvH/+mk02vo0kE6CihFpAtILxYEUax8ioWPqnyoCAgiggiKSJUqRYpKlw7Sewu9BkIJ6WW/eefY5S7Zu9wld0eyvPM8l52dPr+5+9/MO3NZD0U4sGMCTIAJMAGHCXg6nIMzMAEmwASYgCTAAspvBCbABJhABgmwgGYQHGdjAkyACbCA8nuACTABJpBBAiygGQTH2ZgAE2ACLKD8HmACTIAJZJAAC2gGwXE2JsAEmAALKL8HmAATYAIZJMACmkFwnI0JMAEmwALK7wEmwASYQAYJsIBmEBxnYwJMgAmwgPJ7gAkwASaQQQLeGcynZVu79jbmzLmh3X/wQRFUrRqk3bOHCTABJmBUApkW0MREBVFRybh9OxHr199Bu3Z5MiygZ87EIiFBQYUKAdmb97c/AKn/yVXP7kCe3Nm7X9x6JsAELAh4OOvf2e3bdx81auzBkiWV8OKLeS0qsfemQIFtaNMmD37+uZy9WbJeuoREIZSlgHyCQWjIw/YtnwsULfLwnn1MgAlkewKZnoE6QiA5WUF0dApCQrwcyZa90sbEmNo7dgTQ/oXs1XZuLRNgAg4RcMsmEi3x+/U7DW/vfxAaugU001y8OEJr6Nixl4SobsGNG4mYNu2a9NN9pUq7tTS2PHfv3kW5cuXQrFkzYQJIkElv3bolw7p06WIrq/Pj7tw1lZkrp/PL5hKZABPIUgTcMgN9662TmDv3Br76qiSKFPHD2LEX0anTUZw8WQdlyvijYcNQjB//BF5//QTq1w9F794FJaSAAPv0PTSU8o9Hq1at8N///hfjxo1D3759cfXqVaxZs8Yu4FFRUejatatu2rx582LmzJm6cWkCb94yBa34C4iPB5o0hPjmSJOMA5gAE8j+BFz+yT5xIkaK5+jRpfDJJ0UlsapVA1Gt2h4sXBiBQYOKoVatYPkaODAc5cv7awLqCN6WLVtiyJAh+OKLL3DhwgUxw12MefPmoVixYnYV4+npiaJFTe1LnSEoyIFTBfFiBly+DDBnETDlV5MtdNTnQOd2qYvleybABLI5AZcL6NGjJpvgjz9ekYJpzuv8+Tjz20z7P/vsM6xdu1aKZ/v27a3OKPUqCgwMxJQpU/SiHAur/xSwe70pz/5DwNsfAb3fA2pXB0rYJ+aOVcipmQATeFQEXC6gdCyJXM2awfKldrRjx3xOP6507do1HDlyRFZBQkr3BQuazAFqvdausbGxGD58uDh9lPYZeySuw4YNs5bVeni1KsC4L4FmHYCde1hArZPiGCaQLQk4TUBVe+WdO0kWIGhJTo7iBwzQXyKrGYKCvBAZaZlfjUvvmpiYiM6dO8Pf3x8rV65EgwYN8Nprr2HVqlWg5Xl6jvJv2rRJN1muXLl0w+0K9LArFSdiAkwgGxJwmoDS5hC5KVOuIizMD6dOxYpD9XnlofqWLXNjxozriI1NQfv2ecVOvDf2778vBLWYELeH1CpVChTnSG/KXzYVKOCDgwej0b9/2MMENnxjxozBjh07sHXrVtSrV0/s5k8Tm1Kvy80fEtL0XEhICLZv355esvTjx00CSpcEihQCLl8FPh9lylOvTvp5OQUTYALZioDTDtJTr7/55qLYKArXAGzdWl2IWYj4lVISPv74DH755ZoWFxzshbNnn0KePD5a2J49UWIn/ZA8zkSBlObatXpy9qol0vGcPn1a7OaXkTvwI0eOlCloKf7ss88KET6IixcvCtEO1cnpgqC6zYDDxx4WTEL6nWhT8yYPw9jHBJiAIQg4VUCJCInlrVuJKFTIF4GBXhaQkpIUsUMeL5bZnsif3wdeXmnXt5Tm3Lk4+Pl5onBhX900FoVmxZvr4oxrxE0gbx6gQD7AI20/s2KzuU1MgAk4RsDpAupY9ZyaCTABJpB9CZhZILNvJ7jlTIAJMIFHQYAF9FFQ5zqZABMwBAEWUEMMI3eCCTCBR0GABfRRUOc6mQATMAQBFlBDDCN3ggkwgUdBgAX0UVDnOpkAEzAEARZQQwwjd4IJMIFHQYAF9FFQ5zqZABMwBAEWUEMMI3eCCTCBR0GABfRRUOc6mQATMAQBFlBDDCN3ggkwgUdBgAX0UVDnOpkAEzAEARZQQwwjd4IJMIFHQYAF9FFQ5zqZABMwBAEWUEMMI3eCCTCBR0GABfRRUOc6mQATMAQBFlBDDCN3ggkwgUdBINMPlVu79rZ8CJza+A8+KCIfJKfe85UJMAEmYFQCmZ6BJiYqiIpKFs86isOvv14TD4qLyzCrM2dicexYTIbzZ6mMcfHAD9MsHzCnNpDiJv0M9HrX9NTOM2fVGL4yASaQjQhkWkDpkcWLFlUUT+Qsnelu16u3D2PHXsx0OY+8gBvigXLtegADPgd2/mvZHPG0ULzcF/jvcODseWDsROCZVkD4Oct0fMcEmECWJ5BpAXWkh8nJCu7dS3YkS/ZL+92P4rnw1YFtu/TbvnUn8Nc64OvPgI0rgL0bgfv3gcm/6KfnUCbABLIsAbcIKC3x+/U7DW/vf8Tz2begQIFtWLxYPPr3gRs79hJCQrbI58FPm3ZN+um+UqXdahKbV3oGfLly5dChQweLdL169ZLhFO82R3V9/D6w/W/9KpevNoW/1t10LSNm7q3Fs+RnL9RPz6FMgAlkWQKZ3kSyp2dvvXUSc+fewFdflUSRIn5ymd6p01GcPFkHZcr4o2HDUIwf/wRef/0E6tcPRe/eBWWxAQH26buHeO56o0aNMHXqVDGZu4+goCAkJycLkV6MNm3aiMeyp/9c9qioKHTt2lW3O3nz5sXMmTN149IEfvC2Kejq9TRRMuDCJaB8GfGseNG3L8cCLzQHalQFVgrBjYkFAvz183EoE2ACWY6AywX0xIkYKZ6jR5fCJ58UlQCqVg1EtWp7sHBhBAYNKoZatYLla+DAcJQv768JqCO0OnbsKAV0zZo1aN++PQ4fPiw2t6LQsmVLu4rx9PRE0aKm9qXOQILsNEf20Zw5gd17xTJ+PHDxMlCtiqn4m7eAYmFOq4oLYgJMwLUEXC6gR4+adtV//PGKFEzz7pw/n/Ede/NyyE8z0ODgYMybN08K6IYNG2SSJk2apE6qex8YGIgpU6boxjk1kGaYZPMk0Xz9FaDLi8C/+01V8OzTqai5MCbgagIuF9CEBJP9sWbNYNBLdR075kOFCgHqbaavvr6+IJvnhAkTMHnyZKxatQq1a9dGoUKF7Co7NjYWw4cPh569lMR12LBhdpWTbqLCwjzxx19AiGAx/itT8qUrTddcYmbKjgkwgWxDwGkCqtor79xJsug8LcnJUfyAAfpLZDVDUJAXIiMt86tx9lz79esnBXT06NGgpfykSZPsySbTJCYmYtOmTbrpc+XKpRueocBaYof+t8XAwSNA1cpAkujv6rXA07UBL68MFcmZmAATeDQEnCagtDlEbsqUqwgL88OpU7Fo1y6v/FUSnRWdMeM6YmNTxPI6r9iJ98b+/feFoBaDMD1qrlKlQCxZclP+sqlAAR8cPBiN/v3DtPj0PKVLl0a3bt0watQombRLly7pZdHiQ0JCsH37du0+w57LV032zTt3TUXs3gfkyW3aKCL7Zqe2wEdDgPc+BYZ8JMRzHXDuAjBY+NkxASaQvQiIJavT3JgxF8R6faP22rr1riw7MjJR6d37uBZOaYKDNys3byZY1P3vv/eU/Pm3aukoTXR0skWa9G7+/fdfkR9K586d00vqmviVfytKUFja14KlD+v7Z5uiFCz/MM3QrxQlJeVhPPuYABPIFgQ8qJXOlPzbt5Nw61aisD36IjDQckmalKSIn3zGw9/fE/nz+4gVa9rjRZTm3Lk4+Pl5onBhX900tto7f/58OQtdv349GjdubCvpo40Tx6zkr4+KCBttgPNswY+2U1w7E3i8CDhdQB8FPjquRPbP27dvY9myZaClOwkpOybABJiAKwmYWSBdWY1ryybhvH79OuLi4qT9c8aMGa6tkEtnAkyACQgChpiB8kgyASbABB4FAUPMQB8FOK6TCTABJsACyu8BJsAEmEAGCbCAZhAcZ2MCTIAJsIDye4AJMAEmkEECLKAZBMfZmAATYAIsoPweYAJMgAlkkAALaAbBcTYmwASYAAsovweYABNgAhkkwAKaQXCcjQkwASbAAsrvASbABJhABgmwgGYQHGdjAkyACbCA8nuACTABJpBBAiygGQTH2ZgAE2ACLKD8HmACTIAJZJAAC2gGwXE2JsAEmAALKL8HmAATYAIZJJDpp3KuXXtbPkVTrf+DD4rIJ3Gq9+68pqSkYOvWrShXrpx45lJ+d1bNdTEBJvAYEsi0gCYmKoiKShbPI0rE+vV3xKOM82RYQM+ciUVCgoIKFTL2kLXVq1fjhRdeQP369bFlyxaHhvPmzZv4+eefdfN4eHjgk08+EY9gNtaEXTzxFIcORaNatSDkyGGsvukOJAcyAScTyLSA0jPf6bVv333UqLEnU82rV28f2rTJI4SsXIbKKVq0qMxXqVIlh/PfunUL06dPl/nu3LmDGzduyFlszpw5ZdhHH31kOAFdsCACvXufQHj4UyhZMofDzDgDE3jcCWRaQB0BmJysIDo6BSEhlo87dqQMW2mffPJJJCYmwtvbdrdiYmIQGxuL0NBQLS0t+0+cOCGLX7hwoXyy57p161C5cmWrVd6/fx9kNggJCbGaxlZEdHQ0fH194ePjYytZloi7fz9Z9BUZHru7d5NEXm+IyTw7JmAYAm5Zt9ESv1+/00Ks/hGitQUFCmzD4sURGsSxYy+JD9cWMetLxLRp16Sf7itV2q2lSc9DAkhCljt3bjRo0EA3uWofDQwMRN68eaVwDR48WDettcDvvvsObdu2FX0ogODgYCnCdevW1ZKXLl0aw4YN0+7//vtv2a49ex7Ozjds2CD6VglBQUFSQOkxzJGRkVoeV3vi4lLkGNDsk1zVqv9qzOfNu6FV/913l0VfD8u0wcFb5NjVrbtPxh8/HiPzrF79sN3Dh5+XadUCSHAnT74iw3Lm3Cpm8Jvw+efnkJSkqEn4ygSyNQHbUzUnde2tt05i7twb+OqrkihSxA9jx15Ep05HcfJkHZQp44+GDUMxfvwTeP31E8J+GSqWlQVlzQEB9uv70KFDhf00QZQ9FrQcT+1oZvrqq6/K4NmzZ6NQoUI4e/YsChY01ZU6vbX7OXPm4OrVqxgwYIBY9paUM1Bz22h4eDhoZqq6+Ph4YSOOkjNjCjt06BCee+45aaddtGgRtm3bhnHjxoFEXTUhqHn1rlRW165d9aLkl8LMmTN148wDvb09MHJkKaxbd1uOy+DBxZEvn2kWXL16kJZ0zpzroq8Joq/F5BI/JUURImiaQsbGpkjbd3y8UMkHLioqSX4JqvfTpl3FO++cEuNaEC1a5JZ1kciWKuUvxqKAmoyvTCDbEnC5gJ44ESM/OKNHlxIbMSYbZdWqgWLjYg8WLozAoEHFUKtWsHwNHBiO8uX9NQF1hOrLL78sk69YsUJbipvnT0pKEra+cDRt2lTYWdvIWaF5vCP+KlWqoH///o5k0dKOGTNGzlxXrVol29CxY0cp5L/++it++uknzaSgZUjlIbFWbb2pouSMNnWY3j0JKH1J0XKavti6dMln1QZapUqg6GuYXjHphg0Zclbax1Wbdrt2eZEnz1bMmHGNBTRdepwgOxBwuYAePRojOfz44xUpmOZQzp+PM791qd/f3x8jRowAzVTDwsLQs2dPMTt6R+z4V3BpvakLp6U8zSKff/55Ler48ePSf+XKFRQrVkwL1/PQTHXKlCl6UVkqjMwx9NqzJwp16uzV2kbmnJMnY7V79jCB7EzA5QJKx5LI1awZLF8qrI4d82X4uJJahqPXIUOGiBlRS3lcacaMGZg4cSImTZokhdTRsmylpw0qay4uLk7OQGnmmdrZsxlFZQ8fPhyKktaOSOJqbn9NXb4z7728TEt5sqfqucREU3hYmB9orFVHfkdMM2o+vjKBrEjAaQKqfiju3Emy6CctyclR/IABpiW8RQKzm6AgL7GZYpnfLNouL4nI0aNHxUZFku5yuGbNmkLIawp77Fdo3rw5/vvf/+KNN95w2k54qVKlcOTIEattrVq1KpYsWYIOHToI+28Zq+msRZAtd9OmTbrRuXLl0g23FhgQYDoNkXrMrKU3D8+Tx/TWsTabLFTIT3xReMlZ6EcfhYmxMAmueRnsZwLZnYDTBJQ2h8hNmXJVLJH9cOpUrDhUn1ceqqdzojNmXBdHh1LQvn1esZvrjf3778vNCfOz6ZUqBQpxuSl/2VSggA8OHox22P6mitKXX34p7Kq1cO/ePXTv3l0cn4rGm2++iRdffBElSpQQH+wb2maT+SZQZge0devW+P7779GnTx9069YNO3bssCjy008/lQLaokULaUaoV68erl27JjezzJf1FpnMbmiWun37drOQjHufeMJ09nPEiPN4//0iuH49QY7dM8+EplsoCWTFigH45puLYjYMuRFoLqY0rkOHFsenn4ajUaMDYgzyi1+I+cvle7NmufDEE6Yv1nQr4gRMICsTEEtBp7kxYy6Ij9JG7bV1611ZdmRkotK793EtnNIEB29Wbt5MsKj733/vKfnzb9XSURrxaxmLNOndXL58WSlbtqwoA/Illuwyy5kzZxRh+9TCKV783FNZtmxZmiLF7rhMJ2aSaeJq166tCJFME64GREREKGKjyqIecdxJOXjwoJpEERtdipipWqQRy3It3p0ecUJCtOPhmAlB1KqvXXuP6Osh7T61R9g3RT92WOQPC9uuJRPLeIXeEzSO5nWsWROppWEPE8jOBDyo8c4U+Nu3k8TMLlEcE/IVR3MsD8zT+b8LF+Lh7+8pfuXjA9WOZl4/pTl3Lg5+fp4oXNhXN415ej1/cnIyzp8/L5fltGFEP8VUHf1k8/bt29IOmS9fPlG+ZRvVdJm90rlOmvXSWU/6NZN5G9SyqR2Ujs6UUrpH5Wi8bt6kMfMTJwMc53HlSoK0yebM6Z1mzKlP9A67ciUeYljETNtXnH19OB6Pqs9cLxNwBgGnC6gzGsVlMAEmwASyAwH7T6pnh95wG5kAE2ACbiTAAupG2FwVE2ACxiLAAmqs8eTeMAEm4EYCLKBuhM1VMQEmYCwCLKDGGk/uDRNgAm4kwALqRthcFRNgAsYiwAJqrPHk3jABJuBGAiygboTNVTEBJmAsAiygxhpP7g0TYAJuJMAC6kbYXBUTYALGIsACaqzx5N4wASbgRgIsoG6EzVUxASZgLAIsoMYaT+4NE2ACbiTAAupG2FwVE2ACxiLAAmqs8eTeMAEm4EYCLKBuhM1VMQEmYCwCLKDGGk/uDRNgAm4kwALqRthcFRNgAsYiwAJqrPHk3jABJuBGAiygboTNVTEBJmAsAiygxhpP7g0TYAJuJMAC6kbYXBUTYALGIsACaqzx5N4wASbgRgIsoG6EzVUxASZgLAIsoMYaT+4NE2ACbiTAAupG2FwVE2ACxiLAAmqs8eTeMAEm4EYCLKBuhM1VMQEmYCwCLKDGGk/uDRNgAm4kwALqRthcFRNgAsYiwAJqrPHk3jABJuBGAiygboTNVTEBJmAsAiygxhpP7g0TYAJuJMAC6kbYXBUTYALGIsACaqzx5N4wASbgRgIsoG6EzVUxASZgLAIsoMYaT+4NE2ACbiTAAupG2FwVE2ACxiLAAmqs8eTeMAEm4EYCLKBuhM1VMQEmYCwCLKDGGk/uDRNgAm4kwALqRthcFRNgAsYiwAJqrPHk3jABJuBGAiygboTNVTEBJmAsAiygxhpP7g0TYAJuJMAC6kbYXBUTYALGIsACaqzx5N4wASbgRgIsoG6EzVUxASZgLAIsoMYaT+4NE2ACbiTgNAG9ejUBW7bchaJYb/21awkYPPgsOnQ4gl69TmDixMuIi0uxnsFKzL37Cl76OA5XbuhXpkDBB399hT9OrrdSAgc7i0BMTAzWrVuH2NhYZxX5SMrZeG4X3vhjCJIVx9+P5g3esmULqlatigsXLpgHa/7o6GgZv3TpUi2MPfoEtu1LxodfxSM5WT/e3tDoWAX//SYeDV6KQdW20fhtRaK9WdNN551uCjsTvPDCIezde198mKriuedypskVG5uChg334+TJWHTunA/Xrydg0KCz6Nu3cJq0tgJu31Pw/Gux2HskGb07+qBwfi+L5CSe3Rf1x59nNsPX0xttyj5nEW+Um7Vr12LmzJnizZWM119/XTC37Oft27cxYcIEHDhwAE8++ST69++PkJAQh7t/48YN/PLLL2jSpAlq166dJv/w4cMxevRofP755/jss8/SxNsKWLZsGY4dO6abpEGDBqhXr55unCsCt17cg4VH/8SVqBtY3v1HeHlkbG4RFRWFgwcPIiEhQbeZNF4Uf+fOHd14uwN3/gscOAK82dPuLE5NePkqMOM34MRpoFploM+rQHCQY1V8+wPSzLh6dgfy5Jbl7DyQjPEzEsREKQVzx/rDy/Kjbnddk+YkYtRPCXjvZV9ULuOJahUyWJBejYqT3CuvHFOCgzcrR45E65b4zz93xHRxozJr1jUtPj4+RfPb6+k5QHydlL2nfDMtXjfLD7vnKKFf11SazOypJKUk66bJ7oHbt2+nqbfy9NNPK0LUpP/UqVMW3WrdurUM79atm7wKkbWIt/dGfNhl/nHjxulm+fnnn2X8rFmzdONtBX744YdK2bJl5Yv6Qy/1ftKkSbayuiTuk79HyffOyC1TMlz+qlWrZD9Sj4da4N27d2X89OnT1SDHr3MWKkpQmKIULO94XmfkuHZDUcrVNrWhcduH1zj9z6RulfEJpnwlqylKtQYPXxcuWST//Pt4+XmfMNOBsi1KUJRuH8YoZZvdTxXqnFvxBeA8l5hoXRBnzLgm3jgblePH9QXWnlZs2JkkYb71Waxu8psxt+UHoMKklsq9ONcA063YzYFitic/hGIWoxw+fFj6f//9d60VYpkow4YMGSLDunTpolSsWFGLd8STnoBSWYmJiTaLFLMu5ebNm8r9+9bHhIST2mnLJSUlKbdu3VLE7M5WMqtxlJ8EzJpLFl+4dad1le+hC3evWEtmM9ylAhp+TlFUwXqUAvr1eJP4/bvfxOK3xab7pSttsrGIvH3HlOf3PyyCU9+It47StFeM/Nxfvm5dX1LnM79v/26MLMM8zFn+jK1TzKays2dfF0vDLfKVO/dWrF4daRYLaeMsUGAbevY8LsNr196rpd+5855F2vRupi1MRHCgB74dmEM36W+HVsjwX9p+hWC/QIs03333nVzCrly5UgsfO3YsChQogF27dmlhtjxz5syBmBllavn19ttvyzrNbYZiFifbZm05m7pNgYEP+6a2vW7duloyX19f6aflItko//33Xzz//PNafEY8Hh4eFtlOnz4t20xmgdy5c2PYsGEW8XRD9VN/vcTaK2/evAgKCpJ5rly5kiattYATJ06gT58+qFOnDry9vZEnTx5Q//7880+Z5ddff5VlCmHViiBzQ/fuYin4wNGyul+/fjJ/aGio5L948WI1Wrt6imX71Bf+J+9n7F+ihWcZT6gwweQKBX6fBfR9LUPNIlOL+LKF+DLJUH6Zad7vwNPCnFOzqqmMTm0hBhdY+vCzlW7hd+6akuRKa+4zz+spFGrCED8ZNG+l82yX5nVkxp9pAa1ePQjjxz+B//wnDFFRyRDLcov2eHt7YOTIUujRI78MHzy4uExPeYoV0xdCiwIe3IjPImYvT0TP9j7IYeKZJtmiY38ht38ong6rlibunXfekbZA+mCFh4djz549+Pjjj/HKK6/ID2eaDDoBR48exXvvvYdcuXLJDyTdO+rItkd2RbEM17KSGPj7+6NcuXJamC3PCy+8IKPbtGmD3r1743//+x8KFiyoZSGhoX6NHDkSjRo1kvY4sVzW4h3xUFnkfHx8LLKRaI4fP16+SKDE7NIinm7Esh4//vijtL+uXr0af/zxB6gd9KVlr6OxmjZtGqpUqSJtsStWrMCUKVNQrZppjKleqj8l5eH7Tsx2IWaaWhVvvfUWvv/+e3z11VeYMWOGZNWpUyeIZbaWRvVUzl8WxUML4/fja9SgrHPNnQtYPBNo2ihDbRKzLpDtvGPHjihSpAhGjRol34sOF3Y63CSeZ88Dn48CSAyrVwHOX7K/qJsPvvBW/AX8tQ5C0a3mLV/KE09X88Lvf1tPYzWziIiLB3IG20qRiThnTWX37o2SS/QlSyJ0i/zll6syPjxcf/mtm8kskKbvZPv8aYH15VvJ755T2v72tlkuS++lS5eEnTZYEZsqSqlSpeRVzAQtE6VzR2WMGDFCyZ8/v1wmN23aVFm+fHm6y1i1WLG5I/N98MEHMoiWldQmR2yUtBQOCwuT5QihlOUMHTpUmTt3rlqNMnnyZBkv3hrCbHJcOXTokPLyyy/bXMJqmc08Fy9elOUI4TELtfRSHWTPTO2+/PJLmZeWtek5a0t4dUlMdl89J4RR1iG+lLRoGt+WLVvKe+o7tU9sdGnx+/fvl2HUPj3Xe9lAJc/oOnpR6Yap7XWpDZRa8ZEwz2TQBrp3715FrAwkA2IjvoSV3bt3p9s3mSA6xrT0/krYxD8fZfLPXqAoXXub7KL2laIoW3YoSq3Gpj6QOYJsoQuWWs3d74s4Jbh6lNV4vYhbd1KUVZsSpW5Y2zPRy+dIWKZnoGIA3OIipe0dyB1quZQ0r/xe/H3kDbC+JKBv3fnz58tdUJrZ0AwpRw77Z8FUF5UhbIu4fPkyxEYA1qxZg7Zt20J8KM2bYtWfM2dOtGvXDkLs5DKK8tEMqkWLFlbzpI546aWX5Azr2WeflX3YunWrbMv169dlUlrW09KZZqjkBgwYgH379mH27NlyGS0D7fxDS29y+fLlszPHw2TUTiH0aNWqFcjEQKcG4uLiHiZwg09dJdBMmMwA9HrjjTdkzefPixmUjssfmBdiAxIpmTzSpFN0lgiqXr06fvjhB2mK+uijj+TMXu+EhW5jfR+sRGhaR0v3V7sBjZ4RM0ixRHRkF77+U8Du9cBVcQpj8yqggHh/9X4POHdBt9p8uTwQJUz7ZgsN3XTmgRNnJ6LVG7EyqHcnyxWUebrM+J0uoLbOgWamoQSQXEQkfXHquxC/IFy7f1M/8kHotm3btPiMnsWjYyi0FO3Vq5csq2fPnihRooRWbnqeV199VS6dSHz//vtvmZzsdvY4MQMGHf/5+uuvQfZcOqL0zDPPgMJr1qwpiyBhF7Naaesi0aT0VCcddfIko5IDjr5gaPlLZxttOfGtnSa6ePHi8pgSLbnJHkqcqI2q0KfJkIEA1TZrTZjV40RULy1d1RfxEycVdGu8Hn0TObx9QTZRIzoaC3rf0XjQPgC9V/Rs2Lp9J5NOPvGleukyUKk8MGmMmFUUAs6cBcIcO5KolV9NLP/HfWm63blHCzb33BCf+/x5PMT71zzUtv/TPr7YvThAJpoyzzX2U5OBy3Y77IoNCDD17OxZ18ww8uU2CegOcTasbzf9b5MnchfHnquH5cxB781PgvPFF19I2yAddKZzi40bNwbN5OxxlJ/sijTjE0t4aVMjG6QjNj2qh2aswoQgN6SuXr0qzsV2lnZVe9oglqQyGc0I6Y1PdkUSKnK1atWSV7FclzNGsl/SLJBmpHQmtFGjRjLe0T/ESJ2J6uWldujZEyktbRy9+eab8vXbb78JW3gPOfvOqE02df1qu86cOYOiRYumjkb58uJDLlxAQICciadJoBOw6/JBhIUU1InJ3kH0JUd264kTJ8p9gBo1akibMNmDiY/d7mnxPlu1FogVn3V/sYK7IGyfZBelGam5I9vogqVAvTpA5QrmMWn9po932vAHITv2J6NcSQfUU+SjvZJalb3QupE3dh0UM2RXOEfW+7bSRkUliSnIRmFX3K0sXRqh/PDDZeXy5YdntzJrA6W63xxqOgMaeVf/OMO0vYvkEZSVJzemaSodoxEfdGkbE9/ACh31ITsovey1g5KdT4itsnDhwgwfpVEbJmZlNGWTL7ExoganexWCK/OQnU/MYJX3339fK0e16YllmQwTYi/ts6q9lvpPx4AccWo7bR0xIiZUNtlJhUgqmzdvllVQXrFxo2zYsEEhGyYdq6I+iw9wmiZk1AZKNmkqk8Zx6tSpkgnZh1UbKFVEfkpDfaD2kZ2S2kXvg9Ru79Uj8j00Ztu01FF23bvcBrp2k6IsEe+XF18y2R/J/+dau9pGiYRoKuJLTBGTALvzpElIbSC7Ze/3THU362C6P3PWMukX35jC6cxoajdWvAfo2NPuvaYrnQWlMlOdA6Vsh04mSzvmpDnW9z9SF29+78pjTE49BzpuHG04bNReW7c+PHOnngPN6CYSAdl1UIi02Eh6fZD+xg+d/STjP20mRScIY7eZo00a+pAL26UWSgJEHyyxnNPCbHkyev5Qr0wScGoPvRwtd8GCBTIftZ3yC9uiImaxsi8kkJGRkZpoUBoSkL/++kvGi6WaXnOshtEBeSpD3azSS7hx40atPZR2zJgxMpkqmBSmvuhgv15/SUApLrVTBWnnzp2po7R7tY1qHXQ135QjHrRRYh5P3OhL1dzdibunlJvYXAqoMAWZR9ntV9vrsk2kp5uahIbERn3pCZSVFuuxt5LUdvD4Hx/WT+1YvjptevXAP4l9ape6H9QHnS+Ce/dTlCfbiN9ui899RKT+xCl10anvs42AUsNv306Uh+Xv309K3Q+n3H/4VZyEOWWe/reROAsqPwDt57+rJCa7pg3O6Ah9wOgDLX4KmaHiaPYkbImKOL5jNT8dGrd1eN1qxlQR9KWjN1szT0azeNrxjoiwPIVB4efOnVPEEtspbTGv09xPh/mFWUZ+QQp7qHmU5qc01A5xDlWh0w/mjt4rjWe8It87k3c/PM1gnsYev8sF1J5GuCtNjJjInDxNv6SwXuMV8cvDVKy1xPSLpkNHFeXqdUW8kbVg1ZMohqjNW6ZD9NMX63/e1bS2rj0+ilXCGji2g2+rPPM4p85AzQt2lT86JkX7ZcKydfoD98GfX8oPQt8Vjs22XNVm83LFjrgijPdyxkbLTvo1EbtHT2DQunHyPfPqkk8z1ZjHSkAzRSr9zF9ONv2M853P9Vec6ZdgSvH9LFM5NBMdPjFe2b7P8svT3nL00jltE0nMptziAvw98MeP/hg4Nh71a+j/U4Bvmw9CwaB84kC97Z1jtzQ4VSXiXCXolzj06xo6yE+/jGH36Al0qtgctKP/ReMPMtUY+qVU8+bN5QafXkG0sUfxehteeukf57A2z3mLMQEG9jX9si6jLPp28xUTRWDd9mRs25uMmpUc24yyVa8HqaqtBBzHBJgAE2AC+gScJ8X65XMoE2ACTMCwBFhADTu03DEmwARcTYAF1NWEuXwmwAQMS4AF1LBDyx1jAkzA1QRYQF1NmMtnAkzAsARYQA07tNwxJsAEXE2ABdTVhLl8JsAEDEsg0wJ64NQdw8LhjjEBJsAEbBHItIDaKpzjmAATYAJGJsACauTR5b4xASbgUgIsoC7Fy4UzASZgZAIsoEYeXe4bE2ACLiXAAupSvFw4E2ACRibAAmrk0eW+MQEm4FICLKAuxcuFMwEmYGQCLKBGHl3uGxNgAi4lwALqUrxpC3/33Xfl8+TpmfLieUhpEzghZNKkSVod4uFqiImJcUKptos4fOMkOix4D0kplo+PvbhuPc6tWCkzH585Czf+1X/ut+3SXR+bXjuvR99C67lvIiIm0vWN4RqyDQEWUDcPVVRUFOglnp0D8XRNl9QuHuQm66Dnwf/yyy8QTwB1ST1qofQc9UYzXsE/53cjQgiNuTv3xwqcmr9QBh0YPwHXd+02j5b+uMhI3Dp4KE24OwPSa+fxm2ew9eJePPVzZ1y7H+HOpnFdWZgAC6ibB0c8ghiLFi1C/fr1XVYzPWuJ6nj77bddVodasHh8NLot/lDOPBd1/h6FgvOrUfLqExgIn6BAkz84CD6BARbxdLP369HY9H6/NOHuDEivnQ2L18Gs9qMRGXsXLy/5xJ1N47qyMAFDCqh4ZC3EM78hnoGti56WtOIRt7pxFCgei5vuslc8TRP0Eo8V1i2H2pDZmV98fDxoNulKZ087xeORcfv2bXqCa5qm/O+fSVJU6EF+jUrUSRPvlysXcuTOLcP98+WDb86cadLYGyCerYwE0ZYUwTYjjvIn3r+vm9WedrYp+xzeqd0D/145jAVHV+uWw4GPFwFDCejmzZvxzDPPwMfHB/nEh9XPz08++VIdUvHcchkfKGZFvr6+6NSpE27cuKFGY+TIkQgJCYG/vz8ozYsvvojly5dr8eSZOnWqTJNLCAO9vLy8sGLFCi0Nieqrr74q2xAUFISaNWti7969Wrw9nvDwcLRq1Qo5cuRAQECALOPgwYP2ZLU7jT3tXLx4MUqXLo2cQvRyCxH09PTEp59+qtVB9s4ZB5agRqGK6FWtgxZu7slZrixyV64sg/LXqoWQ4sW16Ih9+zC/Rm2EL1uOmGvXpZ/u6XVfPL2U3L2zZ7Fj8FCs7tQFcypWwYI6dTG30pO4snmLjD/z+xKZPl5wV93anr2wpf/H6i0ShQlj9xdfyvzza9bBonrP4MJff2vx5LHVTvOEwxv1Qw5vX/ywe655MPsfUwLZ7rHG1sZpx44daNCgAcLCwjBhwgSUKFFCiqP6+FiyOzZs2FCGDRw4UF6nTZuGy5cvY+vWrVIcTpw4IYufPXs26PGzY8eORbt27XDo0CFUFiJA8X379kXr1q3lY4lJ3CiuTJkyWrNefvllrFy5Ej169JDh48aNkwJ47do1FChQQEtnzUOz1qZNm+K+mClNnz4dt27dwujRo9G+fXvQFwB9OTjDpdfOjRs3yi8Y4vntt9+iSJEieO+993D48GGt+p2XDyAuKQG9q3XSwlJ7SrZ5QQuq+d+H4kuBgYULo9bggTgxZy6izp2XfjWx34OZ6v2Ll3B6kRDyjh1Qtnt35MiTGzHXryNXhfIyaRKtJgQzxWwlEH/7DjzFF6Tqdn42HGTjrNb/AwSIMTj2y6/4p98HaPf3agQ/EHRb7VTLoauPpze6V34B0/f/jqj4aAT7mcwT5mnY/xgR0HtYvCNh+0/ediS5y9IK0VGCg4MVIYi6dUyePJnWn8q8efO0+KFDh8qwTZs2ybCePXsq+fPn1+IPHDgg4ykvOTHDlfdDhgxRhAlAS6d6hJjKeGF7VIOUNWvWyLARI0ZoYeQRgqhUrFjRIoxuhKjL9Nu3b9fiJk6cKMOofkfc999/L/OJWbZFNnva2aZNG5n36tWrWt4nn3xSadmypXY/88BSJfTrmsqh6ye0sIx4tn4yQFncoJFu1sub/lFmla2gROzbrxt/fNZsGR9765YWv6LNi8q6Pm/K+7vh4TL+yE/TtPjIY8dl2KHJU7QwRzxzD/3hlH47UienzZoEDDUDbdGiBQqLWY2eO3LkiAxu1KiRFt2kSRMIYcOxY8fk7FWLeOB54oknpI9mj+SefvppNG/eHF988QXmzp0rZ6F9+vSR5gKKpxkiOZpBqq5evXrSSzNVe5yarl+/h5sqNAsld/HBstaecmylsaed+8TyukaNGihYsKDVotQjPXn8M27XtFq4kyLunj4jSzo5bz7O//mnRanRV65Y3Nt7kzfAZNO9Ec1HmuxlZtR0hhFQWqKTzdOaSxYbCOTMl8BkvyQnvtvkNfUfspOSU+NpWU/LczqCRMv/QYMGSbvpn+KDSUKp1kHpVEd2Qz1nbfOJNo7IiZmetH+a5yUzgjOcPe0kWzDZgW25QkH5ZPQNcTYy9e67rXxOjfPwkMWlxOtvGKY82CzMU6misMVW0qou1rwZQoV9NyPuRvRNmU3tf0bK4DzGIPDwk57N+0PHgpYtW4ZIcaaQNjxSu0qVTB8esu116GDa8Fi/fr1MVrZs2dTJrd6T6IrlrXzRTK5ChQr4+uuv5WZT+fImu9zatWtlPBVCtllyYrkur+ofYW6QJwXUe/WqtrNkyZJ47bXX1GDd6+nTp6Wgd+3aVXemSJth5GgXnTbVVGdPO2nza9asWdLGW6VKFfnlQKcTzF3pXMXk7faL+1C1gKnv5vH2+r2FLZk2kcQ3FfBAEO3Nm0Ns5JGLungBAYXSzpZDSpWS8V6CRaU3+kh/Zv/sumxaTRQLLZTZojh/NidgGAEdPHiw3LmuW7cuaJOIBIh2mukoU+fOneWmDoWTKJ06dUpuItEGj7Dr6S7f9caVxHD+/Plo1qyZFCRa+pNTZ5xVq1bFc889Jzex6HgQ7WCPGjVKpundu7e8qn9o44k2q4R9FcWKFcO9e/fQXWySvPTSS7L9tITfs2cPyCxBR67oiyF1GdQX2gA7evQopkyZohatXal+crQZ1rFjR9BOfv/+/WFPO4knCSjxIZME9fXSpUuyT2oFtYtUQYhfEKbuXYC3anVXgx2+hpQsIfMcnPQDCtSuhbvhZ1G0yXPwz295plSv4Hw1a8jg7YOGovKbfRAoNr3i796BfwFT3lzly6Fwg2cRvmQpksUXQNGmz8NXfHlFiv6QoHpYWSHo1UVh8ckJmH9kJeqGVUegb9ozrdbycbhBCWTWNJtVNpGoHwsXLlRKlSolNz/EcMmr+abH7t27FTHb1OKfffZZ5dy5cxoCIUgWm0i0UUTlDBs2TKZZunSp3KhSy6arsBNalEGbLlSnmkbsYiti1qvVoXqEGFm0xbydQqwUaptaBl2F7VbNql2FoMo0QqS1MHOPEHFFnCLQyqFNNrHLL5PY004xw1UGDBigdOnSRRHHl2Q54gSCeRXKiE2T5IbK1D3zLcIduRFHkJTVXbrJjR3aMKLXjb17ZRHqJtLNAwetFimOQVnkpfzbBw3R0sffvatsGzjYIs286rWUuNuOb4D2WPyR7O/Kk2nHVKuQPY8NAQ/qqfiAZtjRQ+Wqlslamwh06JsO0tP5RfOlq9rJK2LzgJa3dI7TUUczSzo7SseN8uTJo2suoDJp9ktp6PiPNUe2SNoYohkspfNItXylA//UVjJJ6JklaOjoGBYdNbLlIiIi5LEoOtKlzpbV9Pa0k9LSWVZa1tPv7N955x01OxKSE1FtSjtcibqBVT2mol5R04xQS+CAh5bxyWLFEFCwALzMjiHZUwQdko+9EQEPL095WF8vP6WhjSMvcb6WDvd7eHnZU7SW5vNN32P8jhloWqoeFnaeoIWz5/ElYEgBfXyH03k9/+2336Rtl3biSaTFcSxZOH050ReTuTt+MxxNZr2G+KR47H5jMUrmtC3o5nmzi39t+DZ0WtgPxUMLY0PPWcjtH5pdms7tdCEB/S1iF1bIRWcPAmRDriV+OXThwgX5IwOyyZKtNbV4Um/K5y2F7b3noVPFFlJgskcPHWvlU0WqomOFZtgq+sni6Rg7I6fmGaiRR5f7xgSYgEsJ8AzUpXi5cCbABIxMgAXUyKPLfWMCTMClBFhAXYqXC2cCTMDIBFhAjTy63DcmwARcSoAF1KV4uXAmwASMTIAF1Mijy31jAkzApQRYQF2KlwtnAkzAyAQyfQ7UyHC4b0yACTABWwR4BmqLDscxASbABGwQYAG1AYejmAATYAK2CLCA2qLDcUyACTABGwRYQG3A4SgmwASYgC0CLKC26HAcE2ACTMAGARZQG3A4igkwASZgiwALqC06HMcEmAATsEGABdQGHI5iAkyACdgikOmncl6NUNDi9RhZR/lSnhjezw90daa7eDEew4ad04ps0SI3unZ9+JheLcKNnh9/S8TStUm4GpGCJnW9MW6g9WfSu7FZXBUTYAJuJJBppQsOBN59yRedW/hg465kdHw/1unNT0lREBWVLF+//noNO3fec3odjhS4Y38y3v48TjzqAujbzRetG2X6e8iR6jktE2ACWYRApj/5QQEeeLOrj+xOcgrw+ffxiE8A/Hyd18PixXNg0aKKskAPj03OKziDJR08IToq3M9f5kDh/B4ZLIWzMQEmkN0JZHoGag5AFZME+Th18xj7/dHRyTA9jt3+POYpU4S23bqVKB4pnGwebOGPj09BbKxJBC0i7LxR+1cwL4unncg4GRMwJAGnCmhmCG3YcAeVKu1GUNAW+Pr+gy5djiIyMsnuIpOTFbz99il4eW1C3rzbZDkhIVvEc9XFdPiBCw+PQ6tWh5Ajx2YEBGwWzznfg4MHo9VovjIBJsAEHCKQ6SW8eW05Q0wzsoRE89D0/YcOReO55w6gfv1QuVTftu0exo27hMBAL0yfXi79AkSKWbOu48cfr6B//zA0bZoLSUkKdu+OQoECJvMCzUibNj2A+/eTZZm3biVh9OgLaN/+MI4frwMfH/tnk7FxQHCgh7SB2tU4TsQEmIAhCThVQGtWMk1ox/6SgNc7+aB0MfsmuGPGXERwsBdWraqCkBAvdOyYD2fPxoE2jH76qSy8vdMXN3Wm+fzzuUC79OReeCGPNmjz50eAZqDbt1fH00+HyPAcOTzx3nun5KbUM8+EammteUg4j55Jxs8LE9Ggtpe1ZBzOBJjAY0LAqQJaqqgn2jf1xsgpCVj8VxJO/CW26O1we/ZEyR32558/oKU+ftx0NIqEsVix9I8IvfRSfkyefEUu0Ukg3367sDAD5BPLdZOI0yyXXL9+p7U6yFZKjo5J2eN2HkxG41dM7Zo6Ioc9WTgNE2ACBibgVAE9ejoFS9Yk4ZsBfugtZqD2uri4FDkDpZlnakczUnsc7dQfO1Ybc+fewM8/X0XPnscxatQFrF9fVSzjfUEbR+Ratswt7J+WZVaubJ/QP1vTC+c2BKLDe3H48scENKzjb0/TOA0TYAIGJeBUAVWP9/Tq6INcD+yh9nCrWjUIS5bcRIcOeVGmjG1RoqX+7dv6m0tBQV54881C8vXbbzfQo8cxKagffhgmNqhMIlmyZA689lpBe5qVJo2X0N3ihT3R4wVvfDwqHooCeKRvXUhTDgcwASZgDAJOFdCoaKEowvk4WOqnnxaVAtqixUExcyyIevVCcO1aAgoW9AXZNM1dtWpBWLw4QootbQyFhfmB7JdTp16Vx5fq1g2Ry/ajR01LbV9f0xKelvgDB4bLJfyePfeFnTSXPC5FO/29ezsmqOoZVxZQ85FhPxN4/Ag4KHWuAUQ2yxUrKktx++yzc1olw4eXSCOg//tfCTRufABt2x6W6caMKSUFlOyYX3xxXstLnm7d8svZKPlz5vTGrl01xP1JTJx4Wb4ovFGjnA4LKOVjxwSYABNw6kPlBn8bj6+EbTD+cDB87TeBWowCLc8jIxOl3ZKW5HqObKaXLsVLUcyb92FFFH79egKSxRl6Or5Ex6D0XExMijgfGo/cuX3Ey/HvENqFf2NIHM6uD0SJIvadNNBrB4cxASaQvQlkWkCjYxWMm56IiEgFv/6eKP+RyK5FAdmbSjqt33c0BTXaR6N2FS+0augl+uyFbq0dF+J0quFoJsAEsjiBTE+fooWpceueZJy7nII3uvhg4QTjH++pXtETyyb7o2SYB3bsT0H4xYz/LDSLvz+4eUyACdggkOkZqI2yOYoJMAEmYGgCmZ6BGpoOd44JMAEmYIMAC6gNOBzFBJgAE7BFgAXUFh2OYwJMgAnYIMACagMORzEBJsAEbBFgAbVFh+OYABNgAjYIsIDagMNRTIAJMAFbBDItoAdO3bFVPscxASbABAxLINMCalgy3DEmwASYQDoEWEDTAcTRTIAJMAFrBFhArZHhcCbABJhAOgRYQNMBxNFMgAkwAWsEWECtkeFwJsAEmEA6BFhA0wHE0UyACTABawRYQK2R4XAmwASYQDoEWEDTAcTRTIAJMAFrBPjfqFsj46Lwd999FzExpgfelShRAp999pmLasp+xR6+cRLDNk7Agk7fwdvz4eNYjs+chTyVKyGkZEmcXrgIJV5ojcDChdN08OLadaBX4v37CC5eDMWbN0eeJ6ukSZc6YNfwEUiOi5PBgUUK48n33k2dxCn3kUeP4erWraj4em9cWr8BSeJ9ULJtG63sFCUFPRZ/hP51e6FOkSe1cPZkXQI8A3Xz2ERFRYFeq1atwoIFC9xce9atbtflg2g04xX8c343IqJvWTT0wPgJuLZjF2Jv3sK+sd8i+vIVi3i6Obv8D2x6933cOnQInt7euLR2Pa7t3JkmnV5AUnQ0EsXr8qZNOL/6T70kTgm7dfAQ9n0zDvQ87HMrVoovg8UW5d6KvYPNF/eg2ezekoNFJN9kSQI8A3XzsMycOVPW2KFDB5w4ccLNtWfN6qITYtBt8YdISknG0q4/oFBwfouG+gQHwScwAN7+psfFeAf4W8TTzZnFvyOoaFG0XrZECiiFpSQm0iVdV2/01zLNpvf64d7Zs+mmz2gCtd0eXl6iP4FIjo+3KCpfQG5sfm0Onv31JXRZ9B8ce/dP5MoRYpGGb7IWAUPOQJOSknDz5k0kJCTo0qYldKKND1ecWM6py2zdAkTgnTt35CslRf95SNSGaDGryYyLFx+w2NjYzBQh22Crr1R4sniMaWRkpE0m98Wy+N69e7ptSY+nmun27du6XP/3zyRExt7Ft80HoVGJOmpy7ZojTx745coFv9BQGeYbklZU7pw6hfw1qmviSQk9fR4+sVUR45QoZv4JVvqgVZaOJyk2DvFi7BV69KsVR/XQLDO188uZEwEFC8hg2R/Rp9SuVK6i+LXd14hLSsDAtd+kjub7LEbAUAK6efNm8Yz4Z+AjPjj58uWDn58fPv74Yw358ePHZXyg+Pb39fVFp06dcOPGDS1+5MiRCBEfTn9/f/FI5EC8+OKLWL58uRZPnqlTp8o0ucSbn15eYjaxYsUKLQ0J66uvvirbEBQUhJo1a2Lv3r1avD2e8PBwtGrVCjly5EBAQIAs4+DBg/Zk1dJs2LABlSpVArWB+tqlSxcpkmoCmv326dMHderUgbdY8uYRIkXp/vzz4RL2u+++Q9u2bcUjogsgODgYoULA6tatqxaB9HjSF8B//vMfNG7cWDLLnTu35Dps2DCtDJp1zjiwBDUKVUSvah20cHNPgdq1ESLsxT6iDflq1IB//ocz1GO/TMf8GrURdysS4cuWSz/db/7Ph1oRN/cfwJwKlTG/1lNYUPtp/N6wMS5v2KjF2+OJEGO4vHkrzKtWAwufqoc5Fatg/7fjtawk0Cd/m4dF9Z6R9cwuXwkHv59kIbRBYUVQqF49mSdXhfLIXamilt/c07RUPTQsXgeLjv2F2ESTbdY8nv1Zh4BhlvA7duxAgwYNEBYWhgkTJoA2aEgci4plHTmyOzZs2FCGDRw4UF6nTZuGy5cvY6sw7Ht6empL6tmzZ0tRGTt2LNq1a4dDwq5WuXJlGd+3b1+0bt1aig+JG8WVKVNGG9GXX34ZK1euRI8ePWT4uHHjpABeu3ZNCpGW0IqHZq1NmzYFzfimT5+OW7duYfTo0Wjfvr0ULPpySM9Rm5577jnUr18fixYtwrZt20DtoC8FKpMciTT1v3fv3nj77beRX4gSsahWrZpW/Jw5c3D16lUMGDAAJcUGDs22iRM5e3iSgNJYNGrUCKNGjZJjQ7NYc147Lx+Qs63e1Tpp9ab21Bw4QAtq/ttszU+e/HVqo9bggdg+aIgU1yc6mUTYX3yBqi6wcCE8NfxzkIAlCK5kh9zw1jvosnsH9Gazaj71miJWE1s/HShv638zGlT2/UuX4J83r5oEZxYtxq7P/4cnOnVE4QbP4uwfK3Bw4iRhVghDqRfbyXQhpUqh7sgvpb9E61ZaXj1PnxqdsOn8Lmw4txOtyjTUS8JhWYGAkkm3/+TtTJbgnOxCdBQxS1KECOgWOHnyZFpTKfPmzdPihw4dKsM2bdokw3r27KkIIdHiDxw4IOMpLzkxQGqH6gAACm9JREFUw5X3Q4YMUcSyWEuneoRwyXghSGqQsmbNGhk2YsQILYw8QhCVihUrWoTRjRA1mX779u1a3MSJE2UY1W+Pe+WVVySLu3fvasmpPuq/2m6xiZWmHi3xA0/t2rWVli1bpg6W9/bwpPqpTvEFoFsGBc48sFQJ/bqmcuj6Catp7IlYWLe+IkTUnqTKhb/XKLPKVlAi9u23SL/x3feV5a1esAijm6TYWJl+ba/XlYSoqDTxFED1r+vzphaXLN4f86rXUta8+poW5ojnyr3rksuEnTMdycZp3UzAUDPQFi1aoLDO8Rb6ojpy5Ahd5GxIesSfJk2aQAgbjh07Jmevarh6feKJJ6SXZo/knn76aTQXR2O++OILzJ07V85CaRlM5gJytKQlRzNI1dV7sGSjWaE9Tk3Xr18/LTnNQsldvHhRC7Pl2bNnj5whPv/881oytW1XrlxBsWLFtPCMejLCU6+uiJhIGZzHP6detFPCaHl/ZOpPuL57N5KiY+AlTDvkEh8cJ0uvEi9hSqn6n3448N0E/N6gMUq1fxFle3RHaOlSMiuVT69I8R5b3amLVhzt7N87d067d8STNzC3TH491YkER8rgtK4nYBgBpSUl2TytOdooIWe+BCb7JTnxpSWvqf+QTZCcGk+2Qlqe0xEkWv4OGjQIZDcluyEJpVoHpVOduuRV79Wrtc0nWvaSEzM/af9U09OVzAj2ONoEI5tlx44d0yQnG68znNpXR3jq1VsoyPTlc0MIaerdd730GQnb0PctcbzpMCq90QeBRYog8vBh3NY7AWFlQ5DqrPLOWyjS8Fl5DjV8yVKcmD0HdT4bKoU0Jcm02x9QsCCKNW+mNZH83jnSnhjQEtjwRESbvlgKBz2099pIzlGPiMDDT/ojaoCzqiV737Jly+RGCW1WpHa0oUJu48aNoCNE5NavXy+vZcuWlVd7/pDotmnTRr5oVlehQgV8/fXXcrOpfPnysoi1a9fKeLoh2yw5sVyXV/UPCRydFEjt1HaSzfG1115LHW1xf/r0aSnoXbt2RUHx4VVd1apVsWTJEtlPc3ujGu+Mq9rOzPIsncs0G95+cR+qFjDxc0b71DJox5zEs3zPV1H94/4y+Ob+8jgtbJapnbewEceLkwLWXG7xHqojXtX6f4h1vftIW+oTXTpLmygdS4oTK4WKvXuBjill1u2+YlqxlM6d+dVCZtvC+a0TMIyADh48WO5c0y4xbRKRANGOOB1l6ty5s9zUoXASpVPiyAttMNHGypNPPqm7fNdDRmI4f/58NGvWTC7baelPTp1xknDR5g1tnNAxptKlS8vNE0pDmzXmjoSNNquELVEuqWlzpXv37njppZdk+2kJT0txMkvQMSQ6ZpS6DOoLbYAdPXoUU6ZM0Yr/9NNPpYBSXmHXlbNjMkOQyJov67UMGfDQJllmeVK1tYtUQYhfEKbuXYC3anXPQEtsZ6FNIhK3c+KkRP6aNeRZUd3ZpygmpERxeSCfdtMDCxWSv2iiXz0JGyh2DP0MRZ9vgiAxgyWhjL9zV1bs4eEBD09PMUN9G3vHfIO/X+4pfinVSv5qKkos3wuJL3b6VZSjbuqe+fLXWI1LPOVoVk7vTgKZtblmlU0k6sfChQuVUqVKyY0LwVBezTdBdu/erYjZphb/7LPPKufOndMQCEGy2ESiDRcqRxy7kWmWLl0qN2fUsulao0YNizLErrXceFHTiFMBipilaXWonkuXLlm0xbydQpgVaptaBl3FTraaVbsKQZVpxA63FqZ6xNGqNCyGDx+uRivqJtLOnTu1sNQe2kQSJw5SB2v36fFUN5G++eYbLY+eZ8SmSXLDRIiGXrRdYbY2ka5s3qIsbtBIbgTR5pH6uv7vHouyo69dU5Y1a6nFq5tCURcupMlP9V1ct17LL3bqlSM//yI3jtTy6Xpl6zYtjb2en/YukDw++utre7NwukdEwIPqFR/QDDt6qFzVMq7bAMhIw+jANi2Pc4qDy+oGj3k5tJFCZz3pHKejjmaWNHul40Z0dlLPXEBl0uyX0hQRMxZrjuyItDFEM1hKR7MZc0cH1KmtVIdePTR0dPSIjm5Zc8SCZq90lpPOhLrCZYYntSchORHVprTDlagbWNVjKuoVreH0ZtI5zdiICPn7c9/gEHEwP6fuUpsOyAshhaeXNwIKCPuj2ZjQ8p4O4tNSP4d47+gu1cWYxIj3h5KcIpb2eS0O89vTqbXh29BpYT/k9g/Fobf+QKBvgD3ZOM0jImBIAX1ELLnaTBA4fjMcTWa9hvikeOx+YzFK5rT+pZCJarJ0Vvo1VtmJpk2ov17+BTULmez2WbrRj3njTKeiH3MI3P1HT6B83lLY3nseOlVsgeKhaf/T0qNvoetbQLPOV55shy29fmPxdD1up9TAM1CnYORCmAATeBwJ8Az0cRx17jMTYAJOIcAC6hSMXAgTYAKPIwEW0Mdx1LnPTIAJOIUAC6hTMHIhTIAJPI4EWEAfx1HnPjMBJuAUAiygTsHIhTABJvA4EmABfRxHnfvMBJiAUwhk+hyoU1rBhTABJsAEsiEBnoFmw0HjJjMBJpA1CLCAZo1x4FYwASaQDQmwgGbDQeMmMwEmkDUIsIBmjXHgVjABJpANCbCAZsNB4yYzASaQNQiwgGaNceBWMAEmkA0JsIBmw0HjJjMBJpA1CLCAZo1x4FYwASaQDQlkWkCvRiio2jZavrp+EIvj4SnZEAM3mQkwASbgOIFM/xLpfoyCuX+IB63dUvD97ATkzeWBIysDHW8J52ACTIAJZDMCmX4ufFCAB97s6iO7LR5EiM+/j0d8AuDnm81IcHOZABNgAg4SyPQS3ry+wvlNj+VNkI9TN49hPxNgAkzAeAScKqDGw8M9YgJMgAlYJ+BUAc0Zos5ArVfIMUyACTABoxBwqoDWrGQqbuwvCThzgXfjjfIm4X4wASagTyDTu/Cpi+3wXiyWrElC2RKeOPEX78an5sP3TIAJGIeAU2egR0+nSPH8ZoAfdiwMMA4l7gkTYAJMQIeAUwX04AnTsr1XRx/kemAP1amTg5gAE2AChiDgVAGNilYkFJ9Mny41BFvuBBNgAgYn4FQBNTgr7h4TYAJMwIKAUwX03GXTEt7P13ScyaImvmECTIAJGIxAphfb0bEKxk1PRESkgl9/T0TtKl7wNf2y02CouDtMgAkwAUsCmRfQGGDrnmT4it++v9HFB/1eZfW0RMx3TIAJGJWA08+BGhUU94sJMAEmkJqAU22gqQvneybABJiAkQmwgBp5dLlvTIAJuJQAC6hL8XLhTIAJGJkAC6iRR5f7xgSYgEsJsIC6FC8XzgSYgJEJsIAaeXS5b0yACbiUAAuoS/Fy4UyACRiZAAuokUeX+8YEmIBLCbCAuhQvF84EmICRCbCAGnl0uW9MgAm4lAALqEvxcuFMgAkYmQALqJFHl/vGBJiASwmwgLoULxfOBJiAkQmwgBp5dLlvTIAJuJQAC6hL8XLhTIAJGJkAC6iRR5f7xgSYgEsJsIC6FC8XzgSYgJEJsIAaeXS5b0yACbiUAAuoS/Fy4UyACRiZwP8BUvP9zTIe6c8AAAAASUVORK5CYII=;imageBorder=default;" vertex="1" parent="1">
          <mxGeometry x="171.15" y="367.25" width="218.23" height="195.5" as="geometry" />
        </mxCell>
        <mxCell id="0bVcyO2ndW_ruAtxr8vg-61" value="F func Signs" style="text;html=1;align=center;verticalAlign=middle;whiteSpace=wrap;rounded=0;fontStyle=1" vertex="1" parent="1">
          <mxGeometry x="187" y="650" width="103" height="30" as="geometry" />
        </mxCell>
        <mxCell id="0bVcyO2ndW_ruAtxr8vg-63" value="JS" style="swimlane;fontStyle=0;childLayout=stackLayout;horizontal=1;startSize=30;horizontalStack=0;resizeParent=1;resizeParentMax=0;resizeLast=0;collapsible=1;marginBottom=0;whiteSpace=wrap;html=1;" vertex="1" parent="1">
          <mxGeometry x="90" y="700" width="155" height="360" as="geometry" />
        </mxCell>
        <mxCell id="0bVcyO2ndW_ruAtxr8vg-64" value="&amp;amp;&amp;amp; AND" style="text;strokeColor=none;fillColor=none;align=left;verticalAlign=middle;spacingLeft=4;spacingRight=4;overflow=hidden;points=[[0,0.5],[1,0.5]];portConstraint=eastwest;rotatable=0;whiteSpace=wrap;html=1;" vertex="1" parent="0bVcyO2ndW_ruAtxr8vg-63">
          <mxGeometry y="30" width="155" height="30" as="geometry" />
        </mxCell>
        <mxCell id="0bVcyO2ndW_ruAtxr8vg-65" value="|| OR" style="text;strokeColor=none;fillColor=none;align=left;verticalAlign=middle;spacingLeft=4;spacingRight=4;overflow=hidden;points=[[0,0.5],[1,0.5]];portConstraint=eastwest;rotatable=0;whiteSpace=wrap;html=1;" vertex="1" parent="0bVcyO2ndW_ruAtxr8vg-63">
          <mxGeometry y="60" width="155" height="30" as="geometry" />
        </mxCell>
        <mxCell id="0bVcyO2ndW_ruAtxr8vg-66" value="! NOT" style="text;strokeColor=none;fillColor=none;align=left;verticalAlign=middle;spacingLeft=4;spacingRight=4;overflow=hidden;points=[[0,0.5],[1,0.5]];portConstraint=eastwest;rotatable=0;whiteSpace=wrap;html=1;" vertex="1" parent="0bVcyO2ndW_ruAtxr8vg-63">
          <mxGeometry y="90" width="155" height="30" as="geometry" />
        </mxCell>
        <mxCell id="0bVcyO2ndW_ruAtxr8vg-71" value="( ) PARENTHESES" style="text;strokeColor=none;fillColor=none;align=left;verticalAlign=middle;spacingLeft=4;spacingRight=4;overflow=hidden;points=[[0,0.5],[1,0.5]];portConstraint=eastwest;rotatable=0;whiteSpace=wrap;html=1;" vertex="1" parent="0bVcyO2ndW_ruAtxr8vg-63">
          <mxGeometry y="120" width="155" height="40" as="geometry" />
        </mxCell>
        <mxCell id="0bVcyO2ndW_ruAtxr8vg-72" value="=== V&amp;amp;T EQUAL" style="text;strokeColor=none;fillColor=none;align=left;verticalAlign=middle;spacingLeft=4;spacingRight=4;overflow=hidden;points=[[0,0.5],[1,0.5]];portConstraint=eastwest;rotatable=0;whiteSpace=wrap;html=1;" vertex="1" parent="0bVcyO2ndW_ruAtxr8vg-63">
          <mxGeometry y="160" width="155" height="30" as="geometry" />
        </mxCell>
        <mxCell id="0bVcyO2ndW_ruAtxr8vg-78" value="!== NOT V&amp;amp;T EQUAL" style="text;strokeColor=none;fillColor=none;align=left;verticalAlign=middle;spacingLeft=4;spacingRight=4;overflow=hidden;points=[[0,0.5],[1,0.5]];portConstraint=eastwest;rotatable=0;whiteSpace=wrap;html=1;" vertex="1" parent="0bVcyO2ndW_ruAtxr8vg-63">
          <mxGeometry y="190" width="155" height="30" as="geometry" />
        </mxCell>
        <mxCell id="0bVcyO2ndW_ruAtxr8vg-73" value="&amp;gt; GREATER" style="text;strokeColor=none;fillColor=none;align=left;verticalAlign=middle;spacingLeft=4;spacingRight=4;overflow=hidden;points=[[0,0.5],[1,0.5]];portConstraint=eastwest;rotatable=0;whiteSpace=wrap;html=1;" vertex="1" parent="0bVcyO2ndW_ruAtxr8vg-63">
          <mxGeometry y="220" width="155" height="30" as="geometry" />
        </mxCell>
        <mxCell id="0bVcyO2ndW_ruAtxr8vg-74" value="&amp;lt; LOWER" style="text;strokeColor=none;fillColor=none;align=left;verticalAlign=middle;spacingLeft=4;spacingRight=4;overflow=hidden;points=[[0,0.5],[1,0.5]];portConstraint=eastwest;rotatable=0;whiteSpace=wrap;html=1;" vertex="1" parent="0bVcyO2ndW_ruAtxr8vg-63">
          <mxGeometry y="250" width="155" height="30" as="geometry" />
        </mxCell>
        <mxCell id="0bVcyO2ndW_ruAtxr8vg-76" value="&amp;gt;= GREATER OR EQUAL" style="text;strokeColor=none;fillColor=none;align=left;verticalAlign=middle;spacingLeft=4;spacingRight=4;overflow=hidden;points=[[0,0.5],[1,0.5]];portConstraint=eastwest;rotatable=0;whiteSpace=wrap;html=1;" vertex="1" parent="0bVcyO2ndW_ruAtxr8vg-63">
          <mxGeometry y="280" width="155" height="40" as="geometry" />
        </mxCell>
        <mxCell id="0bVcyO2ndW_ruAtxr8vg-77" value="&amp;lt;= LOWER OR EQUAL" style="text;strokeColor=none;fillColor=none;align=left;verticalAlign=middle;spacingLeft=4;spacingRight=4;overflow=hidden;points=[[0,0.5],[1,0.5]];portConstraint=eastwest;rotatable=0;whiteSpace=wrap;html=1;" vertex="1" parent="0bVcyO2ndW_ruAtxr8vg-63">
          <mxGeometry y="320" width="155" height="40" as="geometry" />
        </mxCell>
        <mxCell id="0bVcyO2ndW_ruAtxr8vg-67" value="Feruliym ( F func )" style="swimlane;fontStyle=0;childLayout=stackLayout;horizontal=1;startSize=30;horizontalStack=0;resizeParent=1;resizeParentMax=0;resizeLast=0;collapsible=1;marginBottom=0;whiteSpace=wrap;html=1;" vertex="1" parent="1">
          <mxGeometry x="250" y="700" width="155" height="360" as="geometry" />
        </mxCell>
        <mxCell id="0bVcyO2ndW_ruAtxr8vg-68" value=", COMMA" style="text;strokeColor=none;fillColor=none;align=left;verticalAlign=middle;spacingLeft=4;spacingRight=4;overflow=hidden;points=[[0,0.5],[1,0.5]];portConstraint=eastwest;rotatable=0;whiteSpace=wrap;html=1;" vertex="1" parent="0bVcyO2ndW_ruAtxr8vg-67">
          <mxGeometry y="30" width="155" height="30" as="geometry" />
        </mxCell>
        <mxCell id="0bVcyO2ndW_ruAtxr8vg-69" value="/ SLASH" style="text;strokeColor=none;fillColor=none;align=left;verticalAlign=middle;spacingLeft=4;spacingRight=4;overflow=hidden;points=[[0,0.5],[1,0.5]];portConstraint=eastwest;rotatable=0;whiteSpace=wrap;html=1;" vertex="1" parent="0bVcyO2ndW_ruAtxr8vg-67">
          <mxGeometry y="60" width="155" height="30" as="geometry" />
        </mxCell>
        <mxCell id="0bVcyO2ndW_ruAtxr8vg-70" value="- HYPHEN" style="text;strokeColor=none;fillColor=none;align=left;verticalAlign=middle;spacingLeft=4;spacingRight=4;overflow=hidden;points=[[0,0.5],[1,0.5]];portConstraint=eastwest;rotatable=0;whiteSpace=wrap;html=1;" vertex="1" parent="0bVcyO2ndW_ruAtxr8vg-67">
          <mxGeometry y="90" width="155" height="30" as="geometry" />
        </mxCell>
        <mxCell id="0bVcyO2ndW_ruAtxr8vg-79" value="&#39; &quot; SINGLE/DOUBLE&amp;nbsp;&lt;div&gt;QUOTES&lt;/div&gt;" style="text;strokeColor=none;fillColor=none;align=left;verticalAlign=middle;spacingLeft=4;spacingRight=4;overflow=hidden;points=[[0,0.5],[1,0.5]];portConstraint=eastwest;rotatable=0;whiteSpace=wrap;html=1;" vertex="1" parent="0bVcyO2ndW_ruAtxr8vg-67">
          <mxGeometry y="120" width="155" height="40" as="geometry" />
        </mxCell>
        <mxCell id="0bVcyO2ndW_ruAtxr8vg-81" value="= EQUAL" style="text;strokeColor=none;fillColor=none;align=left;verticalAlign=middle;spacingLeft=4;spacingRight=4;overflow=hidden;points=[[0,0.5],[1,0.5]];portConstraint=eastwest;rotatable=0;whiteSpace=wrap;html=1;" vertex="1" parent="0bVcyO2ndW_ruAtxr8vg-67">
          <mxGeometry y="160" width="155" height="30" as="geometry" />
        </mxCell>
        <mxCell id="0bVcyO2ndW_ruAtxr8vg-83" value="; SEMICOLON" style="text;strokeColor=none;fillColor=none;align=left;verticalAlign=middle;spacingLeft=4;spacingRight=4;overflow=hidden;points=[[0,0.5],[1,0.5]];portConstraint=eastwest;rotatable=0;whiteSpace=wrap;html=1;" vertex="1" parent="0bVcyO2ndW_ruAtxr8vg-67">
          <mxGeometry y="190" width="155" height="30" as="geometry" />
        </mxCell>
        <mxCell id="0bVcyO2ndW_ruAtxr8vg-84" value="&amp;gt; GREATER" style="text;strokeColor=none;fillColor=none;align=left;verticalAlign=middle;spacingLeft=4;spacingRight=4;overflow=hidden;points=[[0,0.5],[1,0.5]];portConstraint=eastwest;rotatable=0;whiteSpace=wrap;html=1;" vertex="1" parent="0bVcyO2ndW_ruAtxr8vg-67">
          <mxGeometry y="220" width="155" height="30" as="geometry" />
        </mxCell>
        <mxCell id="0bVcyO2ndW_ruAtxr8vg-85" value="&amp;lt; LOWER" style="text;strokeColor=none;fillColor=none;align=left;verticalAlign=middle;spacingLeft=4;spacingRight=4;overflow=hidden;points=[[0,0.5],[1,0.5]];portConstraint=eastwest;rotatable=0;whiteSpace=wrap;html=1;" vertex="1" parent="0bVcyO2ndW_ruAtxr8vg-67">
          <mxGeometry y="250" width="155" height="30" as="geometry" />
        </mxCell>
        <mxCell id="0bVcyO2ndW_ruAtxr8vg-86" value="&amp;gt;/= GREATER SLASH EQUAL" style="text;strokeColor=none;fillColor=none;align=left;verticalAlign=middle;spacingLeft=4;spacingRight=4;overflow=hidden;points=[[0,0.5],[1,0.5]];portConstraint=eastwest;rotatable=0;whiteSpace=wrap;html=1;" vertex="1" parent="0bVcyO2ndW_ruAtxr8vg-67">
          <mxGeometry y="280" width="155" height="40" as="geometry" />
        </mxCell>
        <mxCell id="0bVcyO2ndW_ruAtxr8vg-87" value="&amp;lt;/-= LOWER SLASH EQUAL" style="text;strokeColor=none;fillColor=none;align=left;verticalAlign=middle;spacingLeft=4;spacingRight=4;overflow=hidden;points=[[0,0.5],[1,0.5]];portConstraint=eastwest;rotatable=0;whiteSpace=wrap;html=1;" vertex="1" parent="0bVcyO2ndW_ruAtxr8vg-67">
          <mxGeometry y="320" width="155" height="40" as="geometry" />
        </mxCell>
        <mxCell id="0bVcyO2ndW_ruAtxr8vg-88" value="" style="shape=image;verticalLabelPosition=bottom;labelBackgroundColor=default;verticalAlign=top;aspect=fixed;imageAspect=0;image=data:image/png,iVBORw0KGgoAAAANSUhEUgAAAUkAAAGYCAYAAADP6BAiAAABYWlDQ1BJQ0MgUHJvZmlsZQAAKJFtkM9LAlEQx79bhmAeJOoSBUJ0kCx0k6ijmVTgQdTIuu0+TQvdHrsb0b1Tl24RBBEEnYLo5KHL0j/QoSjoHNE9WPol2zytVqs3DN8PX2aGeQN0BBTOKx4AVc3UM7PTwfzSctD7BD8C8GEQUYUZPJ5Op6gE39r+7FtIQq9HxayR3cO3o8ehg8jZS+71+Nz6W9/2fIWiwUg/KCcY101AihGnN00ueJu4V6eliPcFl5p8KlhtstWoyWUSxDfEAVZWCsQPxGG1xS+1cLWywb52ENv7i9pClrSfcgAzSCJFEUSWSKaIYgpzyNOd/u+LNfoSWAfHFnSsooQyTJoQJ4ejgiLxPDQwjCFMLCNCGRP3/n1H12NJQFYJrlxvbQe46KMvTLpeyAv0kH85zBVd+bmuZHuMlXG5yd01oGvPcZ4XAW8IqN85znvNceonQOc9YNmfcnRk8aNkQ5IAAABWZVhJZk1NACoAAAAIAAGHaQAEAAAAAQAAABoAAAAAAAOShgAHAAAAEgAAAESgAgAEAAAAAQAAAUmgAwAEAAAAAQAAAZgAAAAAQVNDSUkAAABTY3JlZW5zaG90hsh1/gAAAdZpVFh0WE1MOmNvbS5hZG9iZS54bXAAAAAAADx4OnhtcG1ldGEgeG1sbnM6eD0iYWRvYmU6bnM6bWV0YS8iIHg6eG1wdGs9IlhNUCBDb3JlIDYuMC4wIj4KICAgPHJkZjpSREYgeG1sbnM6cmRmPSJodHRwOi8vd3d3LnczLm9yZy8xOTk5LzAyLzIyLXJkZi1zeW50YXgtbnMjIj4KICAgICAgPHJkZjpEZXNjcmlwdGlvbiByZGY6YWJvdXQ9IiIKICAgICAgICAgICAgeG1sbnM6ZXhpZj0iaHR0cDovL25zLmFkb2JlLmNvbS9leGlmLzEuMC8iPgogICAgICAgICA8ZXhpZjpQaXhlbFlEaW1lbnNpb24+NDA4PC9leGlmOlBpeGVsWURpbWVuc2lvbj4KICAgICAgICAgPGV4aWY6UGl4ZWxYRGltZW5zaW9uPjMyOTwvZXhpZjpQaXhlbFhEaW1lbnNpb24+CiAgICAgICAgIDxleGlmOlVzZXJDb21tZW50PlNjcmVlbnNob3Q8L2V4aWY6VXNlckNvbW1lbnQ+CiAgICAgIDwvcmRmOkRlc2NyaXB0aW9uPgogICA8L3JkZjpSREY+CjwveDp4bXBtZXRhPgqGOadxAABAAElEQVR4Ae2dB3gURRvH/yGNVFrooffeUYp0kCIivYhSrFjQDwtSFbGCICKKoIhUqSIINnpv0nsLJdQEQgnpZb9559jlLndJ9pK9cLm88zzHzs68036T+++0Y90U4cCOCTABJsAEbBLIZTOUA5kAE2ACTEASYJHkPwQmwASYQBoEWCTTgMNRTIAJMAEWSf4bYAJMgAmkQYBFMg04HMUEmAATYJHkvwEmwASYQBoEWCTTgMNRTIAJMAEWSf4bYAJMgAmkQYBFMg04HMUEmAATYJHkvwEmwASYQBoEWCTTgMNRTIAJMAEWSf4bYAJMgAmkQYBFMg04HMUEmAATYJHkvwEmwASYQBoEWCTTgMNRTIAJMAEWSf4bYAJMgAmkQcAjjTi7otatu40FC8K0NG+/XRy1avlr9+xhAkyACWRHAoaJZEKCgsjIJNy+nYANG+6gS5cCGRbJc+diEB+voEoV3+zI9GGdv/4eSPkfvw/oCxTI/9CGfUyACTg1ATejX99w4MB91K27DytWVMMzzwRlqPGFC+9A584F8NNPlTKU3ikSxScIMSwLFBQM8gQ+rNKqhUCJ4g/v2ccEmIBTEzBsJGlPK5OSFERFJSMw0N2eZNnLNjraVN9J44GuT2WvunNtmQAT0Ahk6cYNTceHDj0LD48tyJNnG2jEuHx5uFaZSZMuC+HchrCwBMyadV366b5atb2aTVqeu3fvolKlSmjXrp2YrsdL01u3bsmwXr16pZXU+Lg7d0155strfN6cIxNgAllGIEtHkq++ehoLF4bhs8/KoHhxb0yaFIoePY7j9OmGqFDBB82b58GUKeXxwgun0KRJHgweXESC8PXVp+V58lD6KejYsSM++OADTJ48Ga+88gquXbuGtWvX6oIaGRmJ3r1727QNCgrC3LlzbcZZBd68ZQpa/Q8QFwe0bg7xdLAy4wAmwAScm0CWfWtPnYqWAjlhQlm8914JSaVWLT/Urr0PS5eGY+TIkqhfP0B+RowIQeXKPppI2oOwQ4cOGD16ND755BNcunRJjFSXY9GiRShZsqSubHLlyoUSJUz1S5nA39+O3fo4MZKtXAFYsAyY8YtpbfLLj4CeXVJmy/dMgAk4MYEsE8njx01rdD/8cFWKojmTixdjzW8z7f/www+xbt06KZBdu3ZNdWRoqyA/Pz/MmDHDVpR9YU0eA/ZuMKU5eAQY8g4w+A2gQR2gtD7Btq9AtmYCTMARBLJMJOlID7l69QLkR21M9+4FDT/qc/36dRw7dkwWQWJJ90WKmKbuarmpXWNiYjBu3DhxcsdUX3M7EtCxY8eaB+nz164BTP4UaNcN2L2PRVIfNbZiAk5BwHCRVNcP79xJtGggTZ/JUfzw4bans2oCf393RERYplfj0rsmJCSgZ8+e8PHxwZo1a9CsWTMMHDgQf/75J2gqnZ6j9Js3b7Zpli9fPpvhugLddFmxERNgAk5GwHCRpA0ZcjNmXENwsDfOnIkRB8uD5MHyDh3yY86cG4iJSUbXrkFih9sDBw/eF6JZUgjYQzLVqvmJc5Y35S94Chf2xOHDURg2LPihQRq+iRMnYteuXdi+fTsaN24sdslniY2gF+SGC4llei4wMBA7d+5Mzyz9+MnfAeXKAMWLAleuAR99aUrTuGH6admCCTABpyFg+GFyatlXX4WKzZkQrZHbt9cRghUofo2TiHffPYeff76uxQUEuOP8+cdQoICnFrZvX6TYoT4ijwJRINlcv95YjkI1Ixues2fPil3yCnJn+/PPP5cWNG1+4oknhNAeRmhoqBDmPDZSOiCoUTvg6ImHGZNYfiPq9GTrh2HsYwJMwOkJOEQkqdUkiLduJaBoUS/4+blbgEhMVMTOc5yYEudCoUKecHe3nouSzYULsfD2zoVixbxs2lhk6ow3N8QZ0PCbQFABoHBBwM26nc5Yba4TE2ACDwk4TCQfFsE+JsAEmED2JWC2Eph9G8E1ZwJMgAk4igCLpKPIcr5MgAm4BAEWSZfoRm4EE2ACjiLAIukospwvE2ACLkGARdIlupEbwQSYgKMIsEg6iiznywSYgEsQYJF0iW7kRjABJuAoAiySjiLL+TIBJuASBFgkXaIbuRFMgAk4igCLpKPIcr5MgAm4BAEWSZfoRm4EE2ACjiLAIukospwvE2ACLkGARdIlupEbwQSYgKMIsEg6iiznywSYgEsQYJF0iW7kRjABJuAoAiySjiLL+TIBJuASBFgkXaIbuRFMgAk4ioBhLwJbt+62fHGXWtG33y4uX/6l3vOVCTABJpAdCRg2kkxIUBAZmSTeXROLX365Ll7uFZthHufOxeDEiegMp3eqhLFxwPezLF8KplaQ4r77CRj0uultiufOqzF8ZQJMwEkIGCaS9LrYZcuqijcllst00xo3PoBJk0Iznc8jzyBMvASsSz9g+EfA7v8sqyPe4oj+rwAfjAPOXwQmTQOadgRCLlja8R0TYAKPlIBhImlPK5KSFNy7l2RPkuxn+80P4r3bdYAde2zXfftu4J/1wBcfAptWA/s3AffvA9N/tm3PoUyACTwSAlkqkjQdHzr0LDw8toj3X29D4cI7sHy5eO3qAzdp0mUEBm6T79ueNeu69NN9tWp7VZM0r/SO7UqVKqFbt24WdoMGDZLhFJ9ljsp6901g57+2i1z1lyl8YF/TtYIYgXcS7+qev9S2PYcyASbwSAgYtnGjp/avvnoaCxeG4bPPyqB4cW85pe7R4zhOn26IChV80Lx5HkyZUh4vvHAKTZrkweDBRWS2vr76tNxNvNe6RYsWmDlzphiU3Ye/vz+SkpKEEC9H586dxWuv03/vdWRkJHr37m2zOUFBQZg7d67NOKvAt4eYgq7dsIqSAZcuA5UriHdxi7Z9Ogl46kmgbi1gjRDV6BjA18d2Og5lAkwgSwlkmUieOhUtBXLChLJ4770SspG1avmhdu19WLo0HCNHlkT9+gHyM2JECCpX9tFE0h4i3bt3lyK5du1adO3aFUePHhUbSpHo0KGDrmxy5cqFEiVM9UuZgETXMEfrlXnzAnv3iyn3FCD0ClC7hin7m7eAksGGFcUZMQEmkHECWSaSx4+bdqt/+OGqFEXzKl+8mPGdcPN8yE8jyYCAACxatEiK5MaNG6VJ69atU5ravPfz88OMGTNsxhkaSCNFWoMkYXzhOaDXM8B/B01F8CjSUNScGRPIDIEsE8n4eNN6YL16AaCP6rp3L4gqVXzV20xfvby8QGuQU6dOxfTp0/Hnn3+iQYMGKFq0qK68Y2JiMG7cONhavyQBHTt2rK580jUqJpYS/vgHCBQspnxmMv99jemaT4ww2TEBJuAUBAwXSXX98M6dRIsG0vSZHMUPH257Oqsm8Pd3R0SEZXo1Ts916NChUiQnTJgAmnZ/9913epJJm4SEBGzevNmmfb58+WyGZyiwvtj5/nU5cPgYUKs6kCja+9c64PEGgLt7hrLkREyACRhPwHCRpA0ZcjNmXENwsDfOnIlBly5B8tc3dJZyzpwbiIlJFlPhILHD7YGDB+8L0SwJsRSouWrV/LBixU35C57ChT1x+HAUhg0L1uLT85QrVw59+vTBl19+KU179eqVXhItPjAwEDt37tTuM+y5cs203njnrimLvQeAAvlNmzO03tjjaeCd0cAb7wOj3xECuR64cAkYJfzsmAATcB4CYlppuJs48ZKYW2/SPtu335VlREQkKIMHn9TCySYgYKty82a8RR3++++eUqjQds2ObKKikixs0rv577//RHooPXv2TM/UMfFr/lUU/2Drz5LfH5a3ZYeiFKn80GbMZ4qSnPwwnn1MgAk8cgJuVANHSPbt24m4dStBrAV6wc/PcvqYmKiIny/GwccnFwoV8hSzS+ujOWRz4UIsvL1zoVgxL5s2adV78eLFcjS5YcMGtGzZMi3TRxsnjijJX9kUF2umvsatzT7aRnHpTMB1CDhMJB8FIjrqQ+uRt2/fxsqVK0HTbBJLdkyACTCBjBIwWwnMaBbOk47E8caNG4iNjZXrkXPmzHGeynFNmAATyJYEXGokmS17gCvNBJiAUxNwqZGkU5PmyjEBJpAtCbBIZstu40ozASaQVQRYJLOKNJfDBJhAtiTAIpktu40rzQSYQFYRYJHMKtJcDhNgAtmSAItktuw2rjQTYAJZRYBFMqtIczlMgAlkSwIsktmy27jSTIAJZBUBFsmsIs3lMAEmkC0JsEhmy27jSjMBJpBVBFgks4o0l8MEmEC2JMAimS27jSvNBJhAVhFgkcwq0lwOE2AC2ZIAi2S27DauNBNgAllFgEUyq0hzOUyACWRLAiyS2bLbuNJMgAlkFQHD3pa4bt1t+XZDteJvv11cviFRvc/Ka3JyMrZv345KlSqJd+gUysqiuSwmwARcjIBhIpmQoCAyMkm8XyYBGzbcEa+RLZBhkTx3Lgbx8QqqVMnYi7H++usvPPXUU2jSpAm2bdtmV5fdvHkTP/30k800bm5ueO+998Trb11rAC7eRIkjR6JQu7Y/cud2rbbZ7EgOZAJ2EDBMJOmd2vQ5cOA+6tbdZ0cVrE0bNz6Azp0LCLGqZB2pI6REiRLSqlq1ajqsLU1u3bqF2bNny8A7d+4gLCxMjkbz5s0rw9555x2XE8klS8IxePAphIQ8hjJlclsC4TsmkMMJGCaS9nBMSlIQFZWMwEDLV83ak0datjVr1kRCQgI8PNJuXnR0NGJiYpAnTx7Nlqbop06dktkvXbpUvnFx/fr1qF69eqpF3r9/HzTFDwwMTNUmrYioqCh4eXnB09MzLTOniLt/P0m0FRnuu7t3E0VaD4hBOTsmkC0IZOnciqbjQ4eeFYK0RQjTNhQuvAPLl4droCZNuiy+QNvE6C0Bs2Zdl366r1Ztr2aTnodEjsQqf/78aNasmU1zdb3Sz88PQUFBUpxGjRpl0za1wG+++QZPP/20aENhBAQESKFt1KiRZl6uXDmMHTtWu//3339lvfbtezjK3rhxo2hbNfj7+0uRpFfgRkREaGkc7YmNTZZ9QKNIcrVq/acxX7QoTCv+m2+uiLYelbYBAdtk3zVqdEDGnzwZLdP89dfDeo8bd1HaqhmQqE6fflWG5c27XYzEN+Ojjy6A3q3Ojgk4O4G0h1oG1/7VV09j4cIwfPZZGRQv7o1Jk0LRo8dxnD7dEBUq+KB58zyYMqU8XnjhlFhPzCOmgEVkDXx99Wv5mDFjxHpmvMh7EmjqnNLRCPP555+XwfPnz0fRokVx/vx5FCliKiulfWr3CxYswLVr1zB8+HAxRS0jR5Lma5UhISGgEabq4uLixJptpBzhUtiRI0fQqlUruW66bNky7NixA5MnTwYJtzrdV9PaulJevXv3thUlhX/u3Lk248wDPTzc8PnnZbF+/W3ZL6NGlULBgqbRbJ06/prpggU3RFvjRVtLyul4crIihM40FIyJSZZr0XFxQgkfuMjIRPmgU+9nzbqG1147I/q1CNq3zy/LIiEtW9ZH9EVh1YyvTMApCWSZSJ46FS2/HBMmlBWbH6Y1w1q1/MRmwT4sXRqOkSNLon79APkZMSIElSv7aCJpD7n+/ftL89WrV2vTZvP0iYmJYu0tBG3bthXrnp3l6M483h5/jRo1MGzYMHuSaLYTJ06UI9A///xT1qF79+5SrH/55Rf8+OOP2vRfS5DCQ4Ksrr2miJIj05Rhtu5JJOlBRFNfenj16lUw1TXJGjX8RFuDbWWTbtjo0eflerW6xtylSxAKFNiOOXOus0imS48NHjWBLBPJ48ejZVt/+OGqFEXzhl+8GGt+61C/j48Pxo8fDxpxBgcHY8CAAWKU85rYSa/i0HJTZk7TbhoNtmnTRos6efKk9F+9ehUlS5bUwm15aMQ5Y8YMW1FOFUZLJ/TZty8SDRvu1+pGSy+nT8do9+xhAs5KIMtEko70kKtXL0B+VCDduxfM8FEfNQ97r6NHjxYjmw7yqM+cOXMwbdo0fPfdd1Is7c0rLXvaFErNxcbGypEkjSBTOj0bQJT3uHHjoCjW63okoObroSnzN/Le3d007ab1TVsuIcEUHhzsDepr1ZHfnmUUNR1fmUBWEzBcJNU//Dt3Ei3aQtNnchQ/fLhpum1hYHbj7+8uNjAs05tF6/KSUBw/flxsDiTanLrWq1dPiHU9sT76GZ588kl88MEHeOmllwzbYS5btiyOHTuWal1r1aqFFStWoFu3bmI9tkKqdqlF0Nrq5s2bbUbny5fPZnhqgb6+plMGKfssNXvz8AIFTH9CqY0Kixb1Fg8DdzmafOedYNEXJlE1z4P9TMCZCRgukrQhQ27GjGtiOuuNM2dixMHyIHmwnM5RzplzQxy7SUbXrkFil9QDBw/elxsC5uezq1XzEwJyU/6Cp3BhTxw+HGX3epgqPJ9++qlY56yPe/fuoW/fvuLoURRefvllPPPMMyhdurT48oZpGzzmGy+Z7bROnTrh22+/xYsvvog+ffpg165dFlm+//77UiTbt28vp/yNGzfG9evX5QaS+RTcIpHZDY02d+7caRaScW/58qazkePHX8SbbxbHjRvxsu+aNs2TbqYkglWr+uKrr0LFqBZy881cMKlfx4wphfffD0GLFodEHxQSv4TykVPtdu3yoXx508Mz3YLYgAk8KgJiuma4mzjxkvi6bNI+27fflWVERCQogwef1MLJJiBgq3LzZrxFHf77755SqNB2zY5sxK9CLGzSu7ly5YpSsWJFkQfkR0yvZZJz584pYi1SC6d48dNFZeXKlVZZil1naSdGhFZxDRo0UIQQWoWrAeHh4YrYHLIoRxwVUg4fPqyaKGJzSREjTgsbMYXW4rPSI04eiHo87DMhelrxDRrsE209ot2n9Ij1RtGOXRbpg4N3amZiyq3Q3wT1o3kZa9dGaDbsYQLOSsCNKuYIgb59O1GM0BLEERsvcazF8tA4nY+7dCkOPj65xK9ZPKGua5nXg2wuXIiFt3cuFCvmZdPG3N6WPykpCRcvXpRTaNqkoZ8Vqo5+fnj79m25LliwYEGRv2UdVbvMXuncI41e6Swk/WrHvA5q3lQPsqMzl2T3qBz1182b1GfeYsfdfh5Xr8bLNdK8eT2s+pzaRH9pV6/GQXSLGDF7ibOhD/vjUbWZy2UC6RFwmEimVzDHMwEmwASyAwH9p7SzQ2u4jkyACTABgwmwSBoMlLNjAkzAtQiwSLpWf3JrmAATMJgAi6TBQDk7JsAEXIsAi6Rr9Se3hgkwAYMJsEgaDJSzYwJMwLUIsEi6Vn9ya5gAEzCYAIukwUA5OybABFyLAIuka/Unt4YJMAGDCbBIGgyUs2MCTMC1CLBIulZ/cmuYABMwmACLpMFAOTsmwARciwCLpGv1J7eGCTABgwmwSBoMlLNjAkzAtQiwSLpWf3JrmAATMJgAi6TBQDk7JsAEXIsAi6Rr9Se3hgkwAYMJsEgaDJSzYwJMwLUIsEi6Vn9ya5gAEzCYAIukwUA5OybABFyLAIuka/Unt4YJMAGDCbBIGgyUs2MCTMC1CLBIulZ/cmuYABMwmACLpMFAOTsmwARciwCLpGv1J7eGCTABgwmwSBoMlLNjAkzAtQiwSLpWf3JrmAATMJgAi6TBQDk7JsAEXIsAi6Rr9Se3hgkwAYMJsEgaDJSzYwJMwLUIsEi6Vn9ya5gAEzCYAIukwUA5OybABFyLAIuka/Unt4YJMAGDCbBIGgyUs2MCTMC1CLBIulZ/cmuYABMwmACLpMFAOTsmwARciwCLpGv1J7eGCTABgwmwSBoMlLNjAkzAtQiwSLpWf3JrmAATMJgAi6TBQDk7JsAEXIsAi6Rr9Se3hgkwAYMJsEgaDJSzYwJMwLUIsEi6Vn9ya5gAEzCYAIukwUA5OybABFyLAIuka/Unt4YJMAGDCbBIGgyUs2MCTMC1CLBIulZ/cmuYABMwmACLpMFAOTsmwARciwCLpGv1J7eGCTABgwmwSBoM1Ojsrl69ik8++STVbEPXb8CF1Wtk/Mm58xD2375UbTkifQJG84y8FIo1T3fFpX/+Tb/wbGgRHx+PUaNG4f79+9mw9vqq7KHPLHtZJSYqOH48GkFBnihWzCt7VT5FbTds2IAxY8YgT548ePPNN1PEAhf+WI3YWxEo/VQnHJoyFVVffAGF6tezsou+dh3n//gDFfr0hldgoFW8IwOSExJwftVqXN+1C8niS1WibRsEt2oJD19fRxZrlfe98+dx8a+/cef0GeTy9ESRRo+jbJen4eburtnq5aklSMdzef163D51CvkqV07H0nZ0QlQUTv+6CHnLl0fxFs1tGzkoNPrGDZxfucoid/fcuVH5+ee0sDNnzuCzzz7DiRMnsGzZMuTK5XrjLpcUyfPnY1Gr1n+YN68y+vcvrHVodvT0799fPqWHDBmCVq1aoVq1ahbN8PTzQ1JcnAzzDPCHp5+18Nw6ehQbX35Vimnxli2yXCS3DH0blzdsRMG6dZHLwwPb3nkPxZo2RatZMy3a4uib3WPHIeLYMRSsUwcRJ44L4f4D90LOo867w7Si9fDUjHV4Lqz5E/kqVUJAqZI6rC1NkhMTsfXtYbi6ZSvK9+ie5SIZefEiDkz6Gv4lSiDXgweJT6FCFiJJf4+7xMOvbdu2mDVrFl566SXLRrjAncNE8u7dRIknMNADbm6WpGikFxeXDD+/h09wcwuKj45ORmCg7XiyTUhQQGUEBLjD29txT69E8Yd6584dUZdAeHk9mlHpq6++iscee8xKIImDd758dJHOp2BBeOXNq94iSYzado4cLUebWuAj8NDIo9pLL0iRpOKP/jATB7+eAhqp+BbOuodYkwlfCF55QaMhJSkJK1q1wemFv1qIZFo87UVHo/dbR46i9ttv2ZtU2h/4arIUyAwlNiBRYlS0zOXJhfNA4piao7/NPXv2oGRJ+x8EqeXpTOGGqktkZBLGjr0gBGUb8ubdLj958mxDSEisbPOdO4l4/vmT8PTcAn//bahXbx/273+4lvH33xEoV263jKd0jRodwLRpV6QgqtCuXo1H69aHhGBtQcGCO5A791Zpp8Y/88wxmS/dP/fcSVkXqs+bb55VTXRdt27diqZitOMppmUFhfh4e3vj3Xff1ZXWEUZ1xOjHlstbqSLyV68uowrVr4/AUqU0M/cHot7wow/RZOKXWrg9nvNiOn9qwULE34u0J5mFLU1raRSpunyizuTunb8gr1n1j2/RIlIgqTyaYgfVqiXuvS2KT4unhaGOm8sbN0qr4NYtdVhbmtDo8cTsX9Dyh+/lSM4yNu272ydPyRHg/cuX0zZMJzbu3j1poWd5prJYTvDN4uWTdKpvWLRhI0lFAZ599gT++OMWBgwojA4dCgiBccPRo1HiCWP6Q+zf/yTWrLmFfv0KoUIFH0yefFkK2vXrjVC4sBeuX4+XgvrFF2Vl/O+/35Ti5umZC6+8UlQ2etSo89iw4Q6++64CKlf2RXh4AiIiEjQgL7xQBHXr+uPDDy9g8OAiaNIkj4wrVy63ZpOeh6YPzZo1Q3BwMKZOnYrSpUsjLCwMJcS0Q4+j9B9//LFN0zZt2mDYsIfTO5tGdgSW6fyUZl3vg/c1v+pp+tUE6b349z9qkF3Xu2fPypHf3o8/QaXnnkXFPn2Qp3w5u/KwMBZ/KKcXLZZB+atWsYjKipsEscFw+8RJsT66W26m1H3P8sGXHk976njxr3+kwOWtaHoo6E1LddzxwQhUHvA8aHlk76ef600q7e5fuYLT4sF2bOaPcv230rP9UOTxx8STIcWULp1cY2/ekhZnFi+RD7kCNUwP43SSuVy0YSK5c+c9KZAjRpQUC7llNFDdugVJP4klCeSQIcXw/fcVZFjTpnnEWsZh/PjjNYwe/XAE1L17EMqX90HnzgVAQrlhw21NJC9dipVT7A4d8qNMGWvhozQkniSSLVvmzdCa5NixY0UZAdi9e7fY+CmmtUWvx8fHJ1VBpXyzk6v9v7dRsV9fnFu+Aqfmz8epeQtQtEljVOr/LIo3b2ax6aGnXQenfIMrmzbjsY8/MnxtlKbQtNGhulyeXvDwsfwbuSM2Gv7t/7w0yV0gvxQR1d7IKwnMDTEFrf7qy3Zne3ja9zJNrbesN+r0ZFaidSt037ZZblLRLGDdwMEIFA/6KoMGonTnTmLd2k9PNqJvc0mR/++zL6R9/mpV8fgn4/EoHm66KuwoI8Ug9/33V8RYcpNy+PB9mzkuXRom43/7LVyLj4pKkmG9eh2TYbNnX5P3Z85EazZNmhxQ6KO6f/6JkDZUVvfux5S1ayOU5GQ11nQ9fTpa2sybd90yQuedEDKlZ8+eOq2zh9mFv/5W5lWsotw+fTrDFRYbCcrZ5b/JfCivm0eO2JXX4WnfybTiS2dXOr3GN/7bp9WN6mezHPHHEh0erlzZslVZ2a6DsqhOfSUxJkZvEbrtzi5bLuty89Bh3WnIUIwCZbpzK37X0q1o3U4Ra8vavb2esH37lKWNmsh8j8/+xd7kSpLYABBHoyQrqovVF87uHLNXAsNGksnJJhn38rI9pBcPeek8PB7G6zkt4O3tJjZ5hOY9cO3a5UNo6ONiJ+06fvrpGpYvD0efPoWwYEEVcfxAtcrcNTIyUq5BZjQXOg7xyy+/2Exes2ZNsSzxrM04Zw6kYyxnlywTo8kFsppluz4D/+LFdVeZpmyHpk5Dxb69YWtZQHdGaRjSaKnRZ59oFnnK2VgWEFNOn6Ag+DzRFI+N/whrnxsop95GH6+h5Q0aqeavbnkaQatcKh71POWO4SNAH9WdDQ2VR4k6LFuiBqV7jQkPx7nfVuDknLnyZANNuQs3bJhuupQGdCKBjmxVe/klueEWde0a/DIww0qZb3a5N0wkK1f2kW1eseImPvjAepdLjV+37racRpPxrl2mheGqVfUN/1WowcHeYjpdCiNHlsTbb58V0/ereOedYNSvb5rK+vqa1JI2ijLimjRpgpUrV4q1zgjkz5/f7ixu3bqFLVu22ExHU/Hs5GhqfHTGjwjfv19+6WsPexvlu3dH7qACupsRJQ7E7x77kTzC0mDM6DTXxu6eC0H4gQMo1aG97mmhWhESpXLdu6m36V5jwm9Km3jxUDTSxYsND9p4qTJwANzsfHKTWPsWNa2/q3XaJU4o5BdHbeiEgB535/RpuY5Mx4/I0dJIhT69kLeCaZlLTx42bR6Ob2xGu2qgYSLZvHleuUkyYsR53LiRgDZt8sojPidORKNLlyBxbtFfnPPLKzZCroCO+JQr54Mvv7wkudIGi143bNg5VKniixo1/BATk4wrV+JlUnf3hz1YsKCXXLf89tsrshwxw8K9e0no27eQrmLoFwQdO3YUu+aNMGLECLH2WUYeA6JfF4hpeLp50K74zp0707XLCoOI4ydwX4xCbh44KIsj0aOzgcWaPSHW69IX7Os7d4kvuhuaTZ2CYLHWRaMKe13I76tkksINGiB03XotOR23KdywgXZPno2vDJH1jbp6DbWGvmERl9mbg5OnoECtmvAWx7luHj6Ck3PnyiwLi1MBRrorm00PSOJlrwsUf2v0MXd0FCigZAnZZ+bhqfkjQy/L9jUYPQplunTO0NpvUmwsaG2U+od2tyPE7Ij40aadXwoRT60erhJu/198Ki2nafTy5VXFKPI8pky5LD+qafXqfvKXLzQlHjz4lBz5URyNCDdtqiU2OUy736p9Wtf//ovE119ftjD5+OPSqFPHXwujKf/UqeUxaNApIXZHZHinTgV0i2SHDh2wdOlSDB8+XOQxSMuXwvWIpJbACTx0YJqOkqiOvnDkum5cr0sk67z3ToaEUS2PrndDQuTt/olfmQfLA+UpRZK+gCTqsTdNozyLBJm4EeuOCBGzg6MzZmq5+BYpjJYzpouRm/6HtJY4DQ9NmWlzpFC9umlY2Rdl/qug9FIGi9EofexJkzLP6Bth8gzpsR9/0qLoGFejTz9OcyagGbuQx42WUI1uD40UQ0Pj5BphkSJeVoe9aRosNm1QvLh+cTSvI40Kw8LiZb50dCi1dVA6kB4aGiumzHTW0dM8C93+27dv46b4wuYVh7TpvCQ7xxGg3elzy3/DrjEfSvEyep2Qah4jjnLFij71CSqI3PnFQXw7j8Wk13raXV9ctwEq9O4ld/DTs3fmeLFBA1p/TIyOlof+9ZyXdOb2ZLRuho0kzStAo0pbx3NUm7x5PYToZLxo+iVOYGD6U0Vam6xUyfpnemo99FzziSkhfdg5nsDa5wfK/6CDjr44QiCpBfTLkbR+PZLZVl7bvkNmUaJN68xm9cjT03qqPZtzj7zCDqpAxpXKQRXibHMugbrvvyfWu4o4VMQcTTf6+nUp8IUfs38X2dF14/wzRsAh0+2MVYVTMQEmwAScj0Au56sS14gJMAEm4DwEWCSdpy+4JkyACTghARZJJ+wUrhITYALOQ4BF0nn6gmvCBJiAExJgkXTCTuEqMQEm4DwEWCSdpy+4JkyACTghARZJJ+wUrhITYALOQ4BF0nn6gmvCBJiAExJgkXTCTuEqMQEm4DwEWCSdpy+4JkyACTghARZJJ+wUrhITYALOQ4BF0nn6gmvCBJiAExJgkXTCTuEqMQEm4DwEWCSdpy+4JkyACTghARZJJ+wUrhITYALOQ4BF0nn6gmvCBJiAExJgkXTCTuEqMQEm4DwEWCSdpy+4JkyACTghARZJJ+wUrhITYALOQ4BF0nn6gmvCBJiAExJgkXTCTuEqMQEm4DwEWCSdpy+4JkyACTghARZJJ+wUrhITYALOQ4BF0nn6gmvCBJiAExJgkXTCTuEqMQEm4DwEWCSdpy+4JkyACTghARZJJ+wUrhITYALOQ4BF0nn6gmvCBJiAExJgkXTCTuEqMQEm4DwEWCSdpy+4JkyACTghARZJJ+wUrhITYALOQ4BF0nn6gmvCBJiAExJgkXTCTuEqMQEm4DwEWCSdpy+4JkyACTghARZJJ+wUrhITYALOQ4BF0nn6gmvCBJiAExJgkXTCTuEqMQEm4DwEWCSdpy+4JkyACTghARZJJ+wUrhITYALOQ4BF0nn6gmvCBJiAExJgkXTCTuEqMQEm4DwEWCSdpy+4JkyACTghARZJJ+wUrhITYALOQ4BF0nn6gmvCBJiAExJgkXTCTuEqMQEm4DwEWCSdpy+4JkyACTghARZJJ+wUrhITYALOQ4BF0nn6gmvCBJiAExIwXCSvXYvHtm13oSipt/b69XiMGnUe3bodw6BBpzBt2hXExianniCVmHv3FTz7biyuhqVRWCpp1eCjYafRbckbSExOUoN0XTdd2IOX/hiNJCX9et+JvYcui15D6L1ruvLOjkbR0dFYv349YmJismP1uc42CNyIuoVOC19GeHSEjVhT0Ddz4zF/VUKq8XojQkKTMWhELBr2iEatp6NwMiT975XevDNr55HZDFKmf+qpI9i//774wtRCq1Z5U0aLL1Eymjc/iNOnY9CzZ0HcuBGPkSPP45VXilnZphVw+56CNgNjsP9YEgZ390SxQu7S/MyZM1i+fLlV0vLly6NHjx4W4XuuHEbHhS/JsHDxB1E0oJBFfFo320P3Yenxv3E1Mgyr+v4Adzfbz5tbMXfwxOx+0u7IjdMoEVg0rWyzbdy4ceMwYcIEfPTRR/jwww/tasfKlStx4sQJm2maNWuGxo0b24xz+sBlqwA/H6BDW+OrGhsHzJoH/HcAKFUSeK4XUK6MfeVQ/S6FWqZp3RyoVV2Gnbx5DttD9+Oxn3pix+BFKOJf0NJW3K3fmYQ/NiTibiTw+rOeVvF6A177KA47DiThncFeKBLkJj960zrcTjHYPffcCSUgYKty7FiUzZy3bLkjhn2blHnzrmvxcXHJml+vZ8DwGAUV7ylfzYqzSPLHH3/QsFIpVKiQUrFiRe0zbNgwC7v7cVFKmW9aKXm+qKdsPL/bIk7vzXv/finTf75tRqpJui95U9p8vPm7VG1cIeKnn36S3OfNm2d3c/73v/9p/UR9Rx+17777LhtyixV/k++NVRT/YEV5fojdPNJNkCy+L90HmPJv3sl0LVJZUc6dTzephUG7bopC6Wo3e/j5428Lk1Wn1su/39ZzB1iEqzfRMYry5OBo+V3ceyRRDbb7GlAnUnnj41i702VFAjEtNt4lJKQuenPmXJciefKkbRHVU5uNuxNlp7z6oeihFE4Vyb1796aIsbx9f+0E2fk/H1huGZHiLiEhQQkPD1fi4izFmMySkpOURrN6y3wu3b2aIqWi/H12q4x79rd3reJcMYBYpeWSkpKUmzdvKvfv30/VjMSxV69eqcarEREREUpUVMb+hhITE5W7d++qWRl7XbdZUSo1MAmXo0Ry605T/tN+NNX99FnT/btj7GvL420V5X8j000zYv0k+Xe8+NifNm3DI5IVErmanVPvV5sJzQJpwPPZD9bfMTOTR+a1PUfMwPh1/vwbCAzcJj/582/HX39ZrmPQmmPhwjswYMBJmXuDBvs1+92779lV4qylCQjwc8PXI3LblU41pvXHOYdWoG7RqhhUu5sabHHdunUrmjZtCk9PTxQsWBDe3t549913LWxyiSn2zKc+lmFzDq6wiKOb6f8thEcud/z41HirOCEEKFeuHC5duiTjkpOTxRptN1SqVAl37tyxss9IwPz58wXjQOzYsUNLfuTIERn2yy+/aGGZ8Zw9e1bmR+Xkz58fY8eOtcpOiCOGDBkCd3d3BAUFwd/fX6a5evWqlW1qAeIhhbfeegstW7aUaaksPz8/rTxqD9Xh1q1bWhatW7dG3759tfvIyEgMHToUHh4eyJMnj/h7LGxzaUZLkBGPu/hKNRPLA3s3AOXLZiSH9NOs+stkM/BB2yqUAzq1A+YvTT+tucWNcCCogHmITf+4FkOR28ML3+9daDM+KJ8bJo/wxuFTydh7xL61fZsZOlmgYWuSder4Y8qU8jh/PhaffHIRYgpt0VQPDzd8/nlZsVZ5GwsXhomNm1JCfExrGCVL6hc78X2TC8Vv9PdCbm+LIixubty4gStXrmhhxYoVg5ubm7zffeUQYhPjMbi25Rqlarxr1y7QWlhwcDCmTp2K0qVLIywsDCVKlFBNtGv1QhVRKk8x/HZyLUY3e00Lpw0d2tzpWrktfDyt2zdp0iRUq1ZNrpOSIIvpKlasWIFVq1Yhb17rtVwtYzs8TzzxBEgY1q5dq63rbdmyRYY9/vjjduSUuimJ1ZQpU6TBCy+8ADFKtDIWU3D88MMPEEseaNu2LcRIDmKkL0XKyjiVABJJ6osWLVrgyy+/lH1z7949VKhQQaagcqmt9LBRnRi1yoebev/qq6+Kv72F+Oyzz1C8eHFQH9A69enTp7V8VNsMX1s0BejjSHfpMlBZtJvWwT+dBDz1JFC3FrDmXyBabJz5inXQ9BxxCr8pxHw/sOg3k8gG+NtM5ZnLA32rP4XZB39DZFwUArz9rOx6POmBl0YDqzcmokENd6v4tALoO00ub6Dp+2m6c6J/jR7D7t8fKafTK1aE28z655+vyfiQEOupss0EKQKv3EiWU+0fl8SniDHdqtNtgViubanXkydPavZzD/0upw9HbpzSwsw94oss1lUDFCGy5sGp+gevHKEUmNDQIj707jVZxtTdcy3CzW/++ecfWcfOnTvLqxhtmUcb4hdiqFStWlXLq2vXrooQf+3eSA+xpvXFlO7TTz+V7fvzT9vTNXP71KbbND2m/MXmkLm55v/2229lvHiYaWE1a9ZUOnToIO+p/1OmP3jwoAyj+jnE0VqfI9YkWz6tKG26KsqmbaZp9iuC+fSfTf6LofqackcsN9B0u0xtUzpaGhgtONB6pw238MgfaX5nKEnFdveVfu/Y970OvZasTPwpTn6ndx/K+JqmjSobFiQeRdnLRcjvCpA/T9pPHRq97N+/X/uUKlVKa6h6pKGAj+0RG40k27dvDxp96nGF/ILkEaJks+NAahlBvvlSzaJdu3YYPnw4hLBDbDThq6++StU2oxH9+vXD8ePHcezYMYg1Q6xbtw7PPPNMRrPLULpnn31Wjvw6duyIRo0aYe7cueLIV2yG8spoImJAjka0DRs2lJ+XXnpJhl28eFFes80/NFJMiAdq1wBeeA54vg8Q/+AYjp5RJDU0TyCwU4w8Q8Tu+LGdQB+x7DRlOkA73jZckG9+GRoWZbmMZm5arJAbwiPouaPfCVHFexPi8ER9dzSsad8IVH8pmbN0mEimdU4yM1UuKNY/yKXXGZUrV0adOnW0T+7cD6e8RR8cZQhL5fwXTdtoDVKvuxF1U67Z0Bql6ooI4SR3/b6Y0qTiSLTU9UKazpM4G+26d+8us6T1yT179sgpKYmVo5x4fFtlTQ8oOuIzY8YM0PrkgAEDUK9ePXH864aVbUYD1KWU1MQ3Pl6IinBULjFRP1988QU6deqU0WIfTbpiRYBT54DAACFsnwGNGwKXHywt5bP94E+zoiWDgWkTTSZbdtg0DRN/4+TU744tIzqvTMd37HFrZvpg9ue5sfW/JHkEyJ60WWX78FttUIm+vqYsaW3SEa5gflMn7Dr0YCEjA4WUy1dSptoZKp6iNlyTJk1AZ/fEDqqNWOsgOm8ZHCj+cM1cYX+TSO4Q58xSc6NHjwatR/71118QU0O5ySB20q3MSWBmzZolBc4qMp0AGg3TWqE4SoMFCxZALCOgTZs2Vqlo/W7mzJnaRpKVgY4AypvOqdpytFnz8ssvS6GmdUEa2dHVKEcbQuTOnRPiYcPRQ5Ocr6+vHL3TCF79PP3001YpaMRN521J1B3lMtyv9etALP4Ch4+ZqibWePHXOuDxBhC7Y5bV3SYevHN+BehcZVpOXct9sG6f0nTPlSMyqGSeoimj5D2dWz59IRnlS9knKbQBO6Crp8zjwPGH68k2C3lUgYZN3B9kFBkpjueIc5A1a+5Vfv89XPn++ytibe/h1n5m1ySpmJfHmM5IRty1Xj9R1yTTOgIkpsVKia+bK3VmPGOz+bR2JvpDntWbPXu2smnTJtGW35UlS5ZY2e+/dkyu1UzcMcsqrt/yd2TczejbVnFCHGUZYhNCxh09elTeDxw40Mq2bNmyMk7sHFvF6QlQ86Y2vf/++zaTvPbaa7IM8YCwGa8nUGwUybXcOXPmKL/++qtCbSQnRpCK2CxRNm7cqOzcuVMRDwdZ1rRp06yyzeia5OXLl2WexEqIvSI2q+Taq7omSQWRnxjQESOqH/Uz1YuOJpm70NBQaUe2lI9dLkac9Vux2vSh9b6mYk2U7v87aJVNhvv1VoRpHZHy/nudorw1wnT/a4rjbHfvPVxvXPK7ZfnLVinK3EWKsksclduw5eG5y5XW68axiXFK4a8aKe3nv2iZh9nd9IXxcl3x0ElLlmYmaXqd+QiQQ85JTp5Mf2SbtM/27WKR+IFTz0lmdOOGstlz2HRO8oWR1ovEq1evln/g+/btU4u0eR0vDnfTQfKZ+xbbjF+6dKmi/hHTl4U+5l84SiR+bqhUmvakzEdMq63y2X5pn4zrvfRtizg6T0h506YKndlT3ZgxY2Q527dvV4PkVezoynAxErMIt+dG3Rw6dOiQzWTjx4+XZWRmU4ceJrThpfKaOHGiLEsVRTWcrn369FHEFNiqLiSSFJfSqRs3Yt02ZZR2TwfZzcsgvxhFa/F0tnLw4MEWNlRfOrtp7uhebYcY7ZpHpe9XBYw2Qsw/bw63Spupft2yw3QQXC1jzGfWmy50brV6Y1M9duyxLP+DcZb1o3wmWT+0KJH6sF9zepNlHg/ujp1Jkuckm/TJ2LlVyibHiSQ1+vbtBIUOjN+//1AEKNwo97/PYiXYGYusv2h6yohLjFeqfNdBihiJWWqOvljiiIhivmtKtglJiUrLOc/J9NP3pv5FemnVaGnz9c5fUisizXASVBoZ0ReeHgAZceL31GJkX1OhkV5qbvfu3bIMMQVNzURXOJVFO8l0AN/cUfiFCxcUMR1O8zC5eZqM+ImXOHsqTyaI9UmbWZAN1UOc07R4SKnGdNhdFVOycYQzol9F5RWFDpKndaiefv0TZtkXWntopHlMnPqgHXESVBvuw01T5d9vD/HLMVvueniyEtxMnGgRh8GPn83YKJLypcPoL422HvTYKjOrwxwyksyKRkRFJyttB5l+DrVyve0OTq8eJ8LPKcUmPyGP74Tc1nl04kGmI9dPln88z6+wPX1Vy6afP6q/ykntFwuqra0rCRsJ5Mcff2wrOs2wn3/+WRFnA7URcWqja/G7a1lGly5dFLFplWaerh5JAqmORvUcWcooj8z0a0bLtDfd2nPb5d94zemdlVvRd2wmb/V8lBTIhX9kbLCiZtr1ddN3mX5FN25anHI1zHopTbXN6mu2FUkCRQ9JGlHevJ1xoBfvXFFeWT1W/sTQHvi0Fjlqw9e6ksQkxCk0orxx/5Yue3MjseOt+7ymeTry09SUvozPPfecktYardhsUWjdkp2JAI3YxS93HIojM/3q0IqZZX4vVoyoxRlgcYDcLNTSO29lvPLn5owNUsxzop82Dp8Yq3R6OVr+FvzClYyPSs3zNcLvRpmIJyc7JsAEmAATsEHAvv16GxlwEBNgAkzAlQmwSLpy73LbmAATyDQBFslMI+QMmAATcGUCLJKu3LvcNibABDJNgEUy0wg5AybABFyZAIukK/cut40JMIFMEzBMJA+euZPpynAGTIAJMAFnI2CYSDpbw7g+TIAJMAEjCLBIGkGR82ACTMBlCbBIumzXcsOYABMwggCLpBEUOQ8mwARclgCLpMt2LTeMCTABIwiwSBpBkfNgAkzAZQmwSLps13LDmAATMIIAi6QRFDkPJsAEXJYAi+Qj6trXX38dgwYNkh/xP4M7pBb0hkS1DHpjYnR0tEPKMc/0aNhpdFvyhnwPuXl46PoNuLB6jQw6OXcewv7bZx7tNP706nkj6hY6LXwZ6nvVnabiXBGHEWCRdBjatDOmd3vTR7wiAOItjGkbZzBWvFdGlkHv2xavckBUVFQGc9KXjF6t22LOc9hycS/ChZiYuwt/rMaZxUtl0KEpU3Fjz17zaOmPFa/wvXXY9OpSq8gsCkivnidvnsN28Zrgx37qKd6pbv363yyqJheThQRYJLMQtnlRc+fOxbJly0Dv+HaUe/fdd2UZQ4YMcVQRWr5R8dHos/x/cgS5rOe3KBpQSIsjj6efHzz9/WSYZ4C/uPe1iKeb/V9MwOY3h1qFZ2VAevVsXqoh5nWdgIiYu+i/4r2srBqX9YgIuLRIite1QrweFOLVpTbx0vRTvLXOZhwFirftpTtFvXPnDuiTrL7cPUVuVIfMjuDi4uJAo0JHOj31FK91xe3bt+m9SFZV+XjLd1I4vn5yJFqUbmgV750vH3Lnzy/DfQoWhFfevFY2egPEi7IRL+qSLNhmxFH6hPv3bSbVU8/OFVvhtQb98N/Vo1hy/C+b+XCg6xBwSZHcunUrmjZtCk9PTxQUX0hvb2/QqEp14pWnMt5PjG68vLzQo0cPiFfGqtH4/PPPERgYCB8fH5DNM888g1WrVmnx5BGveZU2+cSXnz7u7u4QL5DSbEg4n3/+eVkHf39/1KtXD/v379fi9XhCQkLQsWNH5M6dG76+vjKPw4cP60mq20ZPPZcvX45y5cohrxC2/ELocuXKhffff18rIzE5CXMOrUDdolUxqHY3Ldzck7dSReSvXl0GFapfH4GlSmnR4QcOYHHdBghZuQrR129IP93T535oqLS7d/48do0ag7969MKCqjWwpGEjLKxWE1e3bpPx535bIe3jBHfVrRswCNuGPez3BLHcsPeTT2X6xfUaYlnjprj0z7+qubymVU9zw3EthiK3hxe+37vQPJj9LkjAw9XaJN5Ch2bNmiE4OBhTp05F6dKlpQCWKFFCNpXWAZs3by7DRowYIa+zZs3ClStXsH37dikAp06dkrbz58+Hh4cHJk2aBPG6VRw5cgTVxRed4l955RV06tQJL774ohQwiqtQoYKGs3///lizZg369esnwydPnixF7vr16yhcuLBml5qHRp9t27aFeMUpZs+eDfH2PkyYMAFdu3YFiTw9AIxw6dVz06ZN8iFCPL/++msUL14cb7zxBsTbFbXid185hNjEeAyu3UMLS+kp0/kpLajeBw8FlgL9ihVD/VEjcGrBQkReuCj9qrH3gxHn/dDLOLtMiHX3bqjYty9yF8iP6Bs3kK9KZWmaSLMCwUwxG9HH3b6DXOIhqLrdH44DrTnWHvY2fEUfnPj5F2wZ+ja6/PsXAh6Idlr1VPOhq2cuD/St/hRmH/wN4m2CCPA2LSWY27DfRQgY8cpFyuPA6dtGZZWpfISwKAEBAam+hnX69OnyvcqLFi3SyhkzZowM27x5swwbMGCAUqhQIS3+0KFDMp7SkhMjVXk/evRo8U5369dpCsGU8WItUMtj7dq1Mmz8+PFaGHmE6ClVq1a1CKMbIdzSfufOnVrctGnTZBiVb4/79ttvZToxWrZIpqeenTt3lmmvXbumpa1Zs6bSoUMH7X7uod/l+5mP3DilhWXEs/294cryZi1sJr2yeYsyr2IVJfzAQZvxJ+fNl/ExZq+CXd35GWX9iy9L+7shITL+2I+ztPQRJ07KsCPTZ2hh9ngWHvnDkHbbUybbZj0BlxxJtm/fHsXE6MSWO3bsmAxu0aKFFt26dWsI8cKJEyfkKFSLeOApX7689NEokNzjjz+OJ598Ep988gkWLlwoR5M0oqSpPTka6ZGjkaDqGjduLL004tTjVLuhQx9uZNBoklzogymonnzSstFTzwNiKly3bl0UKVIk1azU4zAFfDK+zphq5gZF3D17TuZ0etFiXPz7b4tco65etbjXexPka1pjDYuK0JuE7bIhAZcTSZpO0xpkai5JLNqTM5+u0noiOfGMkteU/9C6JTk1nqbgNJWm4zs0VR85cqRcx/xbfPlIDNUyyE51tI5ny6W24UObNeTEiE1O583T0pTfCKennrQ2S+uyabmi/qaHQ1h0hNWudlrpDI1zc5PZJcfZ3qRLfrBBV6BaVbE2Wk0ruuST7ZBHrLdmxIVF3ZTJ1PZnJA9O4/wEHn6Lnb+uumpIR2pWrlyJCHHmjjYZUrpq1UxfEFpr69bNtMmwYcMGaVaxYsWU5qnek7CKqaj80IisSpUq+OKLL+QGT+XKpnWydevWyXjKhNZKyYmptbyq/4ilAbkDr96rV7WeZcqUwcCBA9Vgm9ezZ89K0e7du7fNER9tQJGj3Wl1tEv3eupJG07z5s2T67E1atSQDwDa9Td35fKVlLc7Qw+gVmFT283j9fo9xOYUbdyIpxHwQPT0ps0tNs/IRYZegm9R61FvYNmyMt5dsKj20ovSn9l/9lwxzQpK5ima2aw4vRMTcDmRHDVqlNwRbtSoEWhjhkSGdnDpGFDPnj3lRgqFk/CcOXNGbtzQpopYZ7M51bbVdyR4ixcvRrt27aTo0DSdnDpyrFWrFlq1aiU3juhoDe0Mf/nll9Jm8ODB8qr+Q5s9tEEk1jtRsmRJ3Lt3D33FxsSzzz4r60/T7X379oGWEOi4Eol/yjyoLbTpdPz4ccyYMUPNWrtS+eRoA6p79+6gHfJhw4ZBTz2JJ4kk8aHlA2rr5cuXZZvUAhoUr4FAb3/M3L8Er9bvqwbbfQ0sU1qmOfzd9yjcoD7uhpxHidat4FPI8sylrYwL1qsrg3eOHIPqL78IP7HRFHf3DnwKm9Lmq1wJxZo9gZAVvyNJiHyJtm3gJR5QEaI9JJpuqYz0bZVFYXFJ8Vh8bA0aBdeBn5f1mc/U0nF4NiRg1DKos2zcUHuWLl2qlC1bVm44iC6RV/ONhr179ypi1KjFP/HEE8qFCxc0FEJ0LDZuaHOG8hk7dqy0+f333+XmkJo3XcW6nUUeZ8ytHwAAG1hJREFUtNFBZao2YndYEaNXrQzVIwTHoi7m9RSCpFDd1DzoKtZS1aTaVYimtBFCrIWZe4RQK2J3XsuHNrbE7rk00VNPMVJVhg8frvTq1UsRR39kPmJn37wIZfzm7+Qmxsx9iy3C7bkRx3eUv3r1kZsptElDn7D9+2UW6sbNzUOHU81SHCGySEvpd44crdnH3b2r7BgxysJmUZ36Suxt+zcd+y1/R7Z3zWnrPtUKZI9LEHCjVogvX6YdvQisdgXnWring890mJzO95lPM9XGXhUL9jQVpXOO9joaIdLZSjqqU6BAAZtTe8qTRrFkQ0dnUnO0NkibMTQSJTu3FFNNOvROdaXlA1tLCNSFdISJjumk5cLDw+WRIjoOpY56VXs99SRbOutJU3D6Xfhrr72mJkd8UgJqz+iCq5Fh+LPfTDQuYRrZaQZ2eGjKnSRG/r5FCsPd7AiPnizooHhMWDjc3HPJA+u20pMNbda4i/OndMDdzd1dT9aazUebv8WUXXPQtmxjLO05VQtnj2sScGmRdM0uy9pW/frrr3KtlXa4SYjFUSZZAXoA0cPH3J28GYLW8wYiLjEOe19ajjJ50xZt87TZxb8uZAd6LB2KUnmKYeOAecjvkye7VJ3rmUECtrdcM5gZJ3M9ArSmW1/8QubSpUvyoD2tkdLaZ0qBpJZXDiqLnYMXoUfV9lJEXI8G8FjxWuhepR22i3ayQLpiD1u3iUeS1kw4hAkwASagEeCRpIaCPUyACTABawIsktZMOIQJMAEmoBFgkdRQsIcJMAEmYE2ARdKaCYcwASbABDQCLJIaCvYwASbABKwJsEhaM+EQJsAEmIBGgEVSQ8EeJsAEmIA1AcPOSVpnzSFMgAkwgexPgEeS2b8PuQVMgAk4kACLpAPhctZMgAlkfwIsktm/D7kFTIAJOJAAi6QD4XLWTIAJZH8CLJLZvw+5BUyACTiQAIukA+Fy1kyACWR/AiyS2b8PuQVMgAk4kACLpAPhctZMgAlkfwKGvS3xWriC9i9ESyKVy+bCuKHeoKuRLjQ0DmPHXtCybN8+P3r3Nr3zWQvMYs8Pvybg93WJuBaejNaNPDB5ROrv/M7iqnFxTIAJGEDAMBULEO+vf/1ZL/Rs74lNe5LQ/c0YA6pnmUVysoLIyCT5+eWX69i9+56lQRbf7TqYhCEfxYrXGgCv9PFCpxaGPXOyuCVcHBNgAqkRMOxb7e/rhpd7e8pykpKBj76NQ1w84O2VWtH2h5cqlRvLllWVCd3cNtufgcEpDp8SDRXup09zo1ghN4Nz5+yYABNwBgKGjSTNG6MKRrx8XbV5jH5/VFQSTK+71p/G3DJZ6NetWwnida5J5sEW/ri4ZMTEmITOIkLnjdq+IkEskDqRsRkTyHYEHCKSmaGwceMdVKu2F/7+2+DltQW9eh1HRESi7iyTkhQMGXIG7u6bERS0Q+YTGLhNvLdaDGsfuJCQWHTseAS5c2+Fr+9W8R7pfTh8OEqN5isTYAJMQCNg2HRby1F48gaaRlbxCeah6fuPHIlCq1aH0KRJHjmt3rHjHiZPvgw/P3fMnl0p/QyExbx5N/DDD1cxbFgw2rbNh8REBXv3RqJwYdNSAI0s27Y9hPv3k2Set24lYsKES+ja9ShOnmwIT0/9o8KYWCDAz02uSeqqHBsxASaQ7Qg4RCTrVTMNUCf9HI8XeniiXEl9A9aJE0MREOCOP/+sgcBAd3TvXhDnz8eCNml+/LEiPDzSFzB1xNimTT7Q7je5p54qoHXM4sXhoJHkzp118PjjgTI8d+5ceOONM3IjqGnT9F82T+J4/FwSflqagGYN3LW82cMEmIDrEXCISJYtkQtd23rg8xnxWP5PIk79I7a+dbh9+yLlznWbNoc065MnTceKSPxKlkz/eM2zzxbC9OlX5XSaRHDIkGJiyl5QTK1NQk2jVXJDh57VyqC1S3J0xEiP2304CS2fM9Vr5vjcepKwDRNgAtmUgENE8vjZZKxYm4ivhntjsBhJ6nWxsclyJEkjyJSORpZ6HO2AnzjRAAsXhuGnn65hwICT+PLLS9iwoZaYcnuBNmvIdeiQX6xHWuZZvbo+MX+injsubPRDtzdi8ekP8Wje0EdP1diGCTCBbEjAISKpHo0Z1N0T+R6sT+phU6uWP1asuIlu3YJQoULawkPT8tu3bW/o+Pu74+WXi8rPr7+GoV+/E1I0//e/YLEpZBLCMmVyY+DAInqqZWXjLrS1VLFc6PeUB979Mg6KArilvxJglQ8HMAEm4PwEHCKSkVFCNYTztDP3998vIUWyffvDYgRYBI0bB+L69XgUKeIFWmM0d7Vr+2P58nApqLQZExzsDVpPnDnzmjz606hRoJxiHz9umhZ7eZmm2zQdHzEiRE639+27L9Yt88mjRrSDPniwfaKpngFlkTTvGfYzAdciYKeMObbxtIa4enV1KWAffnhBK2zcuNJWIvnxx6XRsuUhPP30UWk3cWJZKZK0rvjJJxe1tOTp06eQHFWSP29eD+zZU1fcn8a0aVfkh8JbtMhrt0hSOnZMgAm4NgGHvAhs1Ndx+Eys1cUdDYCX/iVJC9I0lY6ISJDriDR9tuVoDfPy5TgpfEFBDwui8Bs34pEkzpHT0R86QmTLRUcni/OTccif31N87H9e0O72S6NjcX6DH0oX17eDb6seHMYEmIDzEjBMJKNiFEyenYDwCAW//JYg/3OLPct8nbflBtTswPFk1O0ahQY13NGxubtoszv6dLJfbA2oCmfBBJiAgwgYNvyJEkt/2/cl4cKVZLzUyxNLp7r+0Zg6VXNh5XQflAl2w66DyQgJzfhPHB3Uv5wtE2ACmSRg2Egyk/Xg5EyACTABpyRg2EjSKVvHlWICTIAJZJIAi2QmAXJyJsAEXJsAi6Rr9y+3jgkwgUwSYJHMJEBOzgSYgGsTYJF07f7l1jEBJpBJAiySmQTIyZkAE3BtAiySrt2/3DomwAQyScAwkTx45k4mq8LJmQATYALOR8AwkXS+pnGNmAATYAKZJ8AimXmGnAMTYAIuTIBF0oU7l5vGBJhA5gmwSGaeIefABJiACxNgkXThzuWmMQEmkHkCLJKZZ8g5MAEm4MIEWCRduHO5aUyACWSeAItk5hlyDkyACbgwAX7XwCPq3Ndffx3R0aY3OZYuXRoffvjhI6qJ8xV7NOw0xm6aiiU9voFHrofvJzo5dx4KVK+GwDJlcHbpMpR+qhP8ihWzakDouvWgT8L9+wgoVRKlnnwSBWrWsLJLGbBn3HgkxcbKYL/ixVDzjddTmhhyH3H8BK5t346qLwzG5Q0bkSj+Dso83VnLO1lJRr/l72BYo0FoWLymFs6eR0OAR5KPhjsiIyPl588//8SSJUseUS2cr9g9Vw6jxZznsOXiXoRH3bKo4KEpU3F91x7E3LyFA5O+RtSVqxbxdHN+1R/Y/PqbuHXkCHJ5eODyug24vnu3lZ2tgMSoKCSIz5XNm3Hxr79tmRgSduvwERz4ajLohe0XVq8Rgr/cIt9bMXewNXQf2s0fLDlYRPJNlhPgkWSWIzcVOHfuXOnp1q0bTp069Yhq4VzFRsVHo8/y/yExOQm/9/4eRQMKWVTQM8Afnn6+8PAxvT/Jw9fHIp5uzi3/Df4lSqDTyhVSJCksOSGBLum6xhO+kDab3xiKe+fPp2ufUQO13m7u7qI9fkiKi7PIqqBvfmwduABP/PIsei17Cyde/xv5cgda2PBN1hFw6ZFkYmIibt68ifj4eJtEabqbkMYXKFZMvdQpsc0MROCdO3fkJznZ9kvAqA5RYnSSGRcnvkQxMTGZyULWIa22UuZJ4h28ERERaTK5L6aw9+7ds1mX9HiqiW7fvm2T68dbvkNEzF18/eRItCjdUDXXrrkLFIB3vnzwzpNHhnkFWgvHnTNnUKhuHU0gyTCX58PXDSuinxLEKD4+lTZohaXjSYyJRZzoe4XeW5yKo3JotJjSeefNC98ihWWwbI9oU0pXNl8J/NLlC8QmxmPEuq9SRvN9FhJwSZHcunUrmjZtCk/x5ShYsCC8vb3x7rvvalhPnjwp4/3EU9zLyws9evRAWFiYFv/5558jUHwBfXx8xDu7/fDMM89g1apVWjx5Zs6cKW3yiT9w+riLUcHq1as1GxLP559/XtbB398f9erVw/79+7V4PZ6QkBB07NgRuXPnhq+vr8zj8OHDepJqNhs3bkS1atVAdaC29urVSwqhakCj2BdffBENGzaEh5ieFhBCRHZ///1wuvnNN9/g6aefFu8wL4yAgADkESLVqFEjNQukx5NE/q233kLLli0ls/z580uuY8eO1fKg0eOcQytQt2hVDKrdTQs39xRu0ACBYv3WU9ShYN268Cn0cKR54ufZWFy3AWJvRSBk5Srpp/utb/1Py+LmwUNYUKU6Ftd/DEsaPI7fmrfElY2btHg9nnDRh6ue7IhFteti6WONsaBqDRz8eoqWlET49K+LsKxxU1nO/MrVcPjb7yzE1D+4OIo2bizT5KtSGfmrVdXSm3valm2M5qUaYtmJfxCTYForNY9nf9YQcLnp9q5du9CsWTMEBwdj6tSpoE0REsASYgpGjtYCmzdvLsNGjBghr7NmzcKVK1ewXSym58qVS5v+zp8/XwrHpEmT0KVLFxwR61zVq1eX8a+88go6deokBYYEjOIqVKig9Vr//v2xZs0a9OvXT4ZPnjxZitz169el2GiGqXho9Nm2bVvQyG327Nm4desWJkyYgK5du0pRogdAeo7q1KpVKzRp0gTLli3Djh07QPUg4ac8yZEQU/sHDx6MIUOGoJAQHmJRu3ZtLfsFCxbg2rVrGD58OMqITRMaNRMncnp4kkhSX7Ro0QJffvml7BsajZrz2n3lkBw1Da7dQys3pafeiOFa0JO/ztf85CnUsAHqjxqBnSNHSwEt38MktD7iIak6v2JF8di4j0AiFS+40rrgxldfQ6+9u2BrVKqmU6/JYlaw/f0R8rbJVxNAed+/fBk+QUGqCc4tW449H32M8j26o1izJ3D+j9U4PO07sQQQjLLPdJF2gWXLotHnn0p/6U4dtbS2PC/W7YHNF/dg44Xd6FihuS0TDnM0AcUgd+D0bYNyylw2QlgUMdpRxBfdZkbTp0+n+Y+yaNEiLX7MmDEybPPmzTJswIABihALLf7QoUMyntKSEyNVeT969GhFTGE1O9UjxEnGC9FRg5S1a9fKsPHjx2th5BGip1StWtUijG6EcEn7nTt3anHTpk2TYVS+Hvfcc89JFnfv3tXMqTxqv1pvsXFkVY5m/MDToEEDpUOHDimD5b0enlQ+lSlE3mYeFDj30O9Kni/qKUdunErVRk/E0kZNFCGUekyVS/+uVeZVrKKEHzhoYb/p9TeVVR2fsgijm8SYGGm/btALSnxkpFU8BVD56198WYtLEn8fi+rUV9Y+P1ALs8dz9d4NyWXq7rn2JGNbAwm45Eiyffv2KGbjaAg9cI4dO0YXOaqRHvFP69atIcQLJ06ckKNQNVy9li9fXnppFEju8ccfx5PiWMknn3yChQsXytEkTVlpak+Opp/kaCSousYPplc0utPjVLuhQ4dq5jSaJBcaGqqFpeXZt2+fHOm1adNGM1PrdvXqVZQsWVILz6gnIzxtlRUeHSGDC/jktRVtSBhNxY/N/BE39u5FYlQ03MUyDLmEB0ex0ivEXSx71HprKA59MxW/NWuJsl2fQcV+fZGnXFmZlPKnT4T4G/urRy8tO9oxv3fhgnZvjyfIL780v5Fip9+ePNg2cwRcTiRp+kdrkKk52pwgZz5dpfVEcuLhI68p/6E1OnJqPK3d0VSaju/QVHXkyJGgdUxaxyMxVMsgO9Wp01P1Xr2mtuFDU1RyYgQn1yNVe7rSlF+Po40nWkPs3r27lTmtuRrh1Lbaw9NWuUX9TQ+YMCGWKXe1bdlnJGzjK6+Ko0FHUe2lF+FXvDgijh7FbVsnC1LZhKMya7z2Koo3f0Ke0wxZ8TtOzV+Ahh+OkWKZnGjaRfctUgQln2ynVZH8Hrmtd+I1gzQ84VGmh0cx/4frr2mYc5QDCDz8Fjsg80eRJa2/rVy5Um5O0AZBSkebGOQ2bdoEOn5DbsOGDfJasWJFedXzDwlr586d5YdGZ1WqVMEXX3whN3gqV64ss1i3bp2MpxtaKyUnptbyqv5DIkY78CmdWk9aAxw4cGDKaIv7s2fPStHu3bs3iogvqOpq1aqFFStWyHaar/+p8UZc1Xpmlme5fKZR7c7QA6hV2MTPiPqpedBONAlk5QHPo867w2TwzYOVcVasIaZ0HmLNNk7swKfm8ou/oYbiU3vY/7B+8ItybbN8r55yjZKO9MSKEX/VwYNAR3wy6/ZeNc08yuXP/Kg/s3XJqeldTiRHjRold4Rp95U2ZkhkaKeZjgH17NlTbqRQOAnPGXFchDZ1aDOjZs2aNqfatv4wSPAWL16Mdu3aySk2TdPJqSNHEifaMKHNCjoCVK5cOblhQTa0QWLuSLxog0is7cnpL21o9O3bF88++6ysP023adpMSwh0hIeO6KTMg9pCm07Hjx/HjBkztOzff/99KZKUVqyzylEuLRmQkJpPwbUEGfDQxlRmeVKxDYrXQKC3P2buX4JX6/fNQE3STkIbMyRgF8QJhEL16sqzlDZHkSKbwNKl5KF02qX2K1pU/nKHft0j1iSxa8yHKNGmNfzFSJTEMO7OXVmwm5sb3HLlEiPNIdg/8Sv823+A+EVQR/nroEgx1S4qHt706x973cx9i+WvjlqWfszepGxvFAGj1jedZeOG2rN06VKlbNmycrNAcJJX842HvXv3KmLUqMU/8cQTyoULFzQUQnQsNm5ok4PyEUdWpM3vv/8uN0TUvOlat25dizzEbrDc7FBtxG67IkZbWhmq5/LlyxZ1Ma+nEF+F6qbmQVexQ6wm1a5CNKWN2DnWwlSPOJZkxWLcuHFqtKJu3OzevVsLS+mhjRuxk58yWLtPj6e6cfPVV19paWx5xm/+Tm5SCGGwFa0rLK2Nm6tbtynLm7WQmy+0YaN+bvy3zyLvqOvXlZXtOmjx6kZM5KVLVumpvND1G7T0YgdcOfbTz3KzRs2frle379Bs9Hp+3L9E8njnny/0JmE7BxBwozzFly/Tjl4EVruC4xbdM1JBOrRMU9m84vCuuqling9tXtBZSDrnaK+jESKNQumoDp0ttDW1pzxpFEs2xcXIIzVH63q0GUMjUbKjUYm5o0PaVFcqw1Y51IV0bIeOPaXmiAWNQumsI52ZdITLDE+qT3xSAmrP6IKrkWH4s99MNC5R1/Bq0jnGmPBw+Xtpr4BAcTg9r81pMR0SF2KJXO4e8C0s1gPN+oSm4nQYnablucXfjs1pteiTaPH3oSQli2l4kMWBdj2NWheyAz2WDkV+nzw48uof8PPy1ZOMbRxAwKVF0gG8OEsHEzh5MwSt5w1EXGIc9r60HGXypi78Dq7KI8uefnVUcZpp4+ef/j+jXlHTOvojq1AOL9h0IjiHQ+DmOw+BykFlsXPwIvSo2h6l8lj/Dz/OU1PH1YRGj8/V7IJtg35lgXQcZt0580hSNyo2ZAJMICcS4JFkTux1bjMTYAK6CbBI6kbFhkyACeREAiySObHXuc1MgAnoJsAiqRsVGzIBJpATCbBI5sRe5zYzASagmwCLpG5UbMgEmEBOJMAimRN7ndvMBJiAbgIskrpRsSETYAI5kQCLZE7sdW4zE2ACugmwSOpGxYZMgAnkRAIskjmx17nNTIAJ6CbAIqkbFRsyASaQEwmwSObEXuc2MwEmoJsAi6RuVGzIBJhATiTAIpkTe53bzASYgG4CLJK6UbEhE2ACOZEAi2RO7HVuMxNgAroJsEjqRsWGTIAJ5EQCLJI5sde5zUyACegmwCKpGxUbMgEmkBMJsEjmxF7nNjMBJqCbAIukblRsyASYQE4kwCKZE3ud28wEmIBuAiySulGxIRNgAjmRAItkTux1bjMTYAK6CbBI6kbFhkyACeREAiySObHXuc1MgAnoJsAiqRsVGzIBJpATCbBI5sRe5zYzASagmwCLpG5UbMgEmEBOJMAimRN7ndvMBJiAbgIskrpRsSETYAI5kQCLZE7sdW4zE2ACugmwSOpGxYZMgAnkRAIskjmx17nNTIAJ6CbAIqkbFRsyASaQEwmwSObEXuc2MwEmoJsAi6RuVGzIBJhATiTgpgiXExvObWYCTIAJ6CHAI0k9lNiGCTCBHEuARTLHdj03nAkwAT0EWCT1UGIbJsAEciwBFskc2/XccCbABPQQYJHUQ4ltmAATyLEEWCRzbNdzw5kAE9BDgEVSDyW2YQJMIMcSYJHMsV3PDWcCTEAPAcNE8lq4glpPR8lP77djcDIkWU/5bMMEmAATcGoChv3i5n60goV/JCLsloJv58cjKJ8bjq3xc+rGc+WYABNgAukR8EjPQG+8v68bXu7tKc2TxCDyo2/jEBcPeHvpzYHtmAATYALOR8Cw6bZ504oVcpO38Qn8s3BzLuxnAkwg+xFwiEhmPwxcYybABJiAbQIOEcm8gepI0nahHMoEmAATyC4EHCKS9aqZsp30czzOXeJd7uzyx8D1ZAJMwJqAYbvbKbPu9kYMVqxNRMXSuXDqH97lTsmH75kAE8geBBwykjx+NlkK5FfDvbFrqW/2IMG1ZAJMgAnYIOAQkTx8yjTFHtTdE/kerE/aKJuDmAATYAJOT8AhIhkZZTr642nYKUyn58gVZAJMwEUJOEQkXZQVN4sJMIEcSMAhInnhimm67e1lOgqUA7lyk5kAE3ARAoZNiKNiFEyenYDwCAW//JaABjXc4WX6laKLoOJmMAEmkBMJGCeS0cD2fUnwEr/VfqmXJ4Y+zwqZE/+guM1MwNUIOOycpKuB4vYwASaQMwk4ZE0yZ6LkVjMBJuCKBFgkXbFXuU1MgAkYRoBF0jCUnBETYAKuSIBF0hV7ldvEBJiAYQRYJA1DyRkxASbgigRYJF2xV7lNTIAJGEaARdIwlJwRE2ACrkiARdIVe5XbxASYgGEEWCQNQ8kZMQEm4IoEWCRdsVe5TUyACRhGgEXSMJScERNgAq5IgEXSFXuV28QEmIBhBFgkDUPJGTEBJuCKBFgkXbFXuU1MgAkYRoBF0jCUnBETYAKuSIBF0hV7ldvEBJiAYQRYJA1DyRkxASbgigRYJF2xV7lNTIAJGEaARdIwlJwRE2ACrkiARdIVe5XbxASYgGEEWCQNQ8kZMQEm4IoEWCRdsVe5TUyACRhGgEXSMJScERNgAq5IgEXSFXuV28QEmIBhBFgkDUPJGTEBJuCKBFgkXbFXuU1MgAkYRoBF0jCUnBETYAKuSOD/0HkCDWyvBlUAAAAASUVORK5CYII=;imageBorder=default;" vertex="1" parent="1">
          <mxGeometry x="461.15" y="360" width="183.85" height="228" as="geometry" />
        </mxCell>
        <mxCell id="0bVcyO2ndW_ruAtxr8vg-89" value="JS" style="text;html=1;align=center;verticalAlign=middle;whiteSpace=wrap;rounded=0;fillColor=none;" vertex="1" parent="1">
          <mxGeometry x="270" y="339" width="20" height="12" as="geometry" />
        </mxCell>
        <mxCell id="0bVcyO2ndW_ruAtxr8vg-90" value="Feruliym ( F func )" style="text;html=1;align=center;verticalAlign=middle;whiteSpace=wrap;rounded=0;fillColor=none;" vertex="1" parent="1">
          <mxGeometry x="494.62000000000006" y="339" width="116.92" height="12" as="geometry" />
        </mxCell>
      </root>
    </mxGraphModel>
  </diagram>
</mxfile>
